<?xml version="1.0" encoding="UTF-8"?>
<svg version="1.1" xmlns="http://www.w3.org/2000/svg" width="512" height="512">
<path d="M0 0 C10.79370737 9.73951636 17.45273171 19.92425369 20.88232422 34.10400391 C22.59174511 40.46608247 25.1626509 43.69316171 29.74560547 48.28369141 C38.33361438 58.20698812 42.49741493 70.89800532 42.06982422 83.85400391 C41.24141362 92.70643813 38.90584782 100.8663836 33.02685547 107.64306641 C29.00763589 112.85066845 29.17896966 118.16795259 29.00732422 124.54150391 C27.37303761 155.80079052 27.37303761 155.80079052 18.13232422 165.04150391 C17.89468225 166.48403563 17.71231804 167.93576072 17.55419922 169.38916016 C14.34793176 196.83490705 5.47742157 218.4041517 -15.86767578 237.04150391 C-18.77914942 238.84975918 -21.67338489 240.51002423 -24.75048828 242.01806641 C-28.00875516 245.13205579 -27.75640895 248.69521506 -27.86767578 253.04150391 C-27.21694092 253.02579346 -26.56620605 253.01008301 -25.89575195 252.99389648 C-22.94898154 252.93155742 -20.0023498 252.89251707 -17.05517578 252.85400391 C-15.51893555 252.81629883 -15.51893555 252.81629883 -13.95166016 252.77783203 C-12.96875 252.76816406 -11.98583984 252.75849609 -10.97314453 252.74853516 C-10.06717529 252.73282471 -9.16120605 252.71711426 -8.2277832 252.70092773 C-5.86767578 253.04150391 -5.86767578 253.04150391 -4.04858398 254.37231445 C-2.86767578 256.04150391 -2.86767578 256.04150391 -2.86767578 259.04150391 C-0.8819987 259.00895182 1.10367839 258.97639974 3.08935547 258.94384766 C5.13232422 259.04150391 5.13232422 259.04150391 8.13232422 260.04150391 C8.09751953 259.42662109 8.06271484 258.81173828 8.02685547 258.17822266 C7.99978516 257.36998047 7.97271484 256.56173828 7.94482422 255.72900391 C7.91001953 254.92849609 7.87521484 254.12798828 7.83935547 253.30322266 C8.13232422 251.04150391 8.13232422 251.04150391 9.24560547 249.32275391 C11.91628006 247.5091281 14.32207486 247.28040456 17.50732422 246.85400391 C19.18955078 246.61617188 19.18955078 246.61617188 20.90576172 246.37353516 C23.68262432 246.08778053 26.34496747 245.97364691 29.13232422 246.04150391 C29.47263672 244.12337891 29.47263672 244.12337891 29.81982422 242.16650391 C30.84380721 237.36516145 32.83332287 233.51864631 35.30419922 229.30322266 C36.37437176 227.09346459 36.37437176 227.09346459 35.49560547 225.02587891 C33.40515377 221.98304376 31.05796465 219.18753977 28.69091797 216.35791016 C26.93871779 213.75376303 26.25358062 212.17961953 26.13232422 209.04150391 C29.0803939 203.40207037 33.46378109 199.22924035 37.88232422 194.72900391 C38.66865234 193.89304687 39.45498047 193.05708984 40.26513672 192.19580078 C46.06722338 186.29251493 46.06722338 186.29251493 50.81201172 185.17431641 C54.96930562 186.26010375 57.43529718 188.38409902 60.50732422 191.22900391 C64.5592102 194.7970681 64.5592102 194.7970681 69.62060547 196.17822266 C71.98647921 195.35878149 73.96859506 194.29921927 76.13232422 193.04150391 C77.97769677 192.29035931 79.83209366 191.56100668 81.69482422 190.85400391 C83.17505495 190.25244895 84.65462202 189.64924364 86.13232422 189.04150391 C86.29667969 187.39601563 86.29667969 187.39601563 86.46435547 185.71728516 C86.62388088 184.26278875 86.78407235 182.80836528 86.94482422 181.35400391 C87.05020508 180.2721582 87.05020508 180.2721582 87.15771484 179.16845703 C87.65715931 174.79332355 88.39703799 171.64491624 91.13232422 168.04150391 C95.34143061 165.93695071 100.82346341 166.81461931 105.45361328 166.80126953 C107.49276668 166.79157313 109.53090783 166.76055387 111.56982422 166.72900391 C112.85630859 166.72384766 114.14279297 166.71869141 115.46826172 166.71337891 C117.24015869 166.69936035 117.24015869 166.69936035 119.04785156 166.68505859 C122.40799408 167.07336064 123.76886578 167.66498964 126.13232422 170.04150391 C126.96044922 172.67822266 126.96044922 172.67822266 127.38232422 175.72900391 C127.52927734 176.78990234 127.67623047 177.85080078 127.82763672 178.94384766 C128.19601849 182.68906237 128.27688974 186.2828003 128.13232422 190.04150391 C128.95023437 190.18845703 128.95023437 190.18845703 129.78466797 190.33837891 C134.9928329 191.37110905 139.316118 192.90385166 143.99169922 195.43212891 C147.04342817 196.30086926 148.36963139 195.52910774 151.13232422 194.04150391 C153.65551653 192.02132743 156.03904154 189.88784613 158.43701172 187.72119141 C161.96809532 185.52066105 164.01885494 185.63458954 168.13232422 186.04150391 C172.12143213 188.63303573 175.25533663 192.14349791 178.56982422 195.54150391 C179.49214844 196.42837891 180.41447266 197.31525391 181.36474609 198.22900391 C188.72218027 205.63545133 188.72218027 205.63545133 189.01513672 210.33837891 C187.98962792 214.64007068 186.59290852 216.59764996 183.56982422 219.79150391 C180.26959265 222.87520182 180.26959265 222.87520182 179.16357422 226.92822266 C179.64310547 227.97429687 179.64310547 227.97429687 180.13232422 229.04150391 C180.59767578 230.14623047 181.06302734 231.25095703 181.54248047 232.38916016 C182.37012478 234.26183006 183.2066342 236.13019125 184.04833984 237.99658203 C185.31217905 240.86393636 186.13232422 242.87009586 186.13232422 246.04150391 C187.00115234 246.09048828 187.86998047 246.13947266 188.76513672 246.18994141 C189.91755859 246.26470703 191.06998047 246.33947266 192.25732422 246.41650391 C193.39427734 246.48611328 194.53123047 246.55572266 195.70263672 246.62744141 C199.13515775 247.04184599 201.95319729 247.68691939 205.13232422 249.04150391 C207.56092742 252.68440871 207.38994322 254.45454232 207.39794922 258.79150391 C207.39986267 259.44602539 207.40177612 260.10054688 207.40374756 260.77490234 C207.40510666 262.1567422 207.40142935 263.53859494 207.39306641 264.92041016 C207.38236231 267.0339835 207.39297023 269.14670695 207.40576172 271.26025391 C207.40444007 272.60400578 207.40187758 273.94775712 207.39794922 275.29150391 C207.39569336 276.51353516 207.3934375 277.73556641 207.39111328 278.99462891 C207.13232422 282.04150391 207.13232422 282.04150391 205.13232422 285.04150391 C199.65269348 286.91479632 193.8785883 287.29134148 188.13232422 287.04150391 C187.96216797 287.80333984 187.79201172 288.56517578 187.61669922 289.35009766 C186.21907153 295.30488372 184.6429835 300.67328615 181.80419922 306.10400391 C180.96242153 308.53145584 181.22986088 309.66053679 182.13232422 312.04150391 C182.79232422 313.03150391 183.45232422 314.02150391 184.13232422 315.04150391 C184.17919922 317.19775391 184.17919922 317.19775391 183.88232422 319.54150391 C183.75083984 320.70166016 183.75083984 320.70166016 183.61669922 321.88525391 C183.13232422 324.04150391 183.13232422 324.04150391 181.13232422 327.04150391 C181.23544922 328.09337891 181.33857422 329.14525391 181.44482422 330.22900391 C180.9861912 335.82432672 178.03994852 338.24858482 174.13232422 342.04150391 C173.54580078 342.66025391 172.95927734 343.27900391 172.35498047 343.91650391 C169.35880288 346.85153501 167.91595593 347.98553021 163.63232422 348.29150391 C159.73618402 346.90002526 157.70831984 345.18780171 154.90576172 342.22119141 C153.18040383 340.82188358 153.18040383 340.82188358 150.92529297 341.13916016 C146.42718733 342.59239428 142.20717819 344.60839052 137.92724609 346.60205078 C137.24082031 346.91335938 136.55439453 347.22466797 135.84716797 347.54541016 C135.22962646 347.83230713 134.61208496 348.1192041 133.97583008 348.41479492 C132.13232422 349.04150391 132.13232422 349.04150391 128.13232422 349.04150391 C128.08333984 349.86134766 128.03435547 350.68119141 127.98388672 351.52587891 C127.90912109 352.60353516 127.83435547 353.68119141 127.75732422 354.79150391 C127.68771484 355.85884766 127.61810547 356.92619141 127.54638672 358.02587891 C127.15599293 360.86912421 126.68381691 362.65287487 125.13232422 365.04150391 C120.7393953 367.23796837 114.78650973 366.22735323 109.90161133 366.22680664 C107.7068337 366.22899195 105.51255968 366.24714897 103.31787109 366.26611328 C101.92399261 366.26904755 100.53011173 366.27103212 99.13623047 366.27197266 C97.86593994 366.27608154 96.59564941 366.28019043 95.28686523 366.28442383 C92.13232422 366.04150391 92.13232422 366.04150391 89.13232422 364.04150391 C88.40185547 361.58056641 88.40185547 361.58056641 87.94482422 358.66650391 C87.70699219 357.23177734 87.70699219 357.23177734 87.46435547 355.76806641 C87.13232422 353.04150391 87.13232422 353.04150391 87.13232422 349.04150391 C86.31441406 348.89455078 86.31441406 348.89455078 85.47998047 348.74462891 C79.57363212 347.57345556 74.56780093 345.62982615 69.13232422 343.04150391 C69.13232422 348.65150391 69.13232422 354.26150391 69.13232422 360.04150391 C60.22232422 360.04150391 51.31232422 360.04150391 42.13232422 360.04150391 C41.80232422 361.36150391 41.47232422 362.68150391 41.13232422 364.04150391 C38.73521902 366.4386091 38.22778449 366.29273909 34.96182442 366.29877281 C33.64282794 366.30844615 33.64282794 366.30844615 32.29718506 366.31831491 C31.32522025 366.31521771 30.35325545 366.3121205 29.35183716 366.30892944 C28.32389538 366.31346056 27.2959536 366.31799167 26.23686206 366.32266009 C22.76984236 366.33538653 19.30297807 366.33367842 15.8359375 366.33203125 C13.35940344 366.33801136 10.88287126 366.34481569 8.40634155 366.35238647 C2.36399051 366.36826341 -3.6782987 366.37449715 -9.72066484 366.37561123 C-14.63096286 366.37656056 -19.54124797 366.3806651 -24.4515419 366.38701248 C-38.36452666 366.40463206 -52.27748052 366.41385029 -66.19047652 366.41235153 C-66.94101771 366.41227162 -67.69155889 366.41219171 -68.46484375 366.41210938 C-69.21629843 366.41202761 -69.96775311 366.41194585 -70.74197914 366.41186161 C-82.9221387 366.4110486 -95.10217463 366.43018808 -107.28229843 366.45838611 C-119.78032705 366.48709243 -132.27829533 366.50092764 -144.77635777 366.49919856 C-151.79646276 366.49853385 -158.81643817 366.50406113 -165.83651352 366.52555466 C-172.43729758 366.5456344 -179.03785418 366.54511581 -185.63866806 366.53052139 C-188.06550495 366.52842233 -190.49235865 366.53319895 -192.91916656 366.54524231 C-196.2241785 366.56058531 -199.52823145 366.55145867 -202.83322144 366.53598022 C-203.8007248 366.54626735 -204.76822817 366.55655448 -205.76504982 366.56715333 C-212.21516723 366.50008445 -212.21516723 366.50008445 -215.46347237 364.21718788 C-217.51048122 361.04553603 -217.36913735 358.56314181 -217.36376953 354.81103516 C-217.36658432 354.10765015 -217.36939911 353.40426514 -217.37229919 352.67956543 C-217.37306679 350.40358938 -217.34167145 348.12966728 -217.30517578 345.85400391 C-217.29445038 344.69510147 -217.29445038 344.69510147 -217.2835083 343.51278687 C-217.02232447 316.6259067 -211.13892881 294.69467993 -191.83642578 274.86181641 C-175.92938394 259.30287296 -154.78753456 252.54796836 -132.90673828 252.77783203 C-131.43537822 252.80287855 -129.96402404 252.82827311 -128.49267578 252.85400391 C-126.96664756 252.86910185 -125.44060462 252.88278108 -123.91455078 252.89501953 C-120.23194535 252.92756581 -116.54991022 252.97905516 -112.86767578 253.04150391 C-112.86767578 250.07150391 -112.86767578 247.10150391 -112.86767578 244.04150391 C-113.58568359 243.78369141 -114.30369141 243.52587891 -115.04345703 243.26025391 C-134.18936988 234.99811724 -146.56151862 215.57520093 -154.09033203 197.02978516 C-156.15167893 191.03385215 -157.12300804 185.22190275 -157.79907227 178.94824219 C-158.83788319 169.47078403 -160.10857681 163.02968667 -165.68408203 155.16259766 C-181.005423 133.26322121 -189.27587862 103.40408486 -185.04663086 76.94189453 C-183.37823265 67.72068763 -180.77575071 58.71637153 -175.79736328 50.71337891 C-173.47237742 46.72995044 -172.97401123 42.87854052 -172.43017578 38.35400391 C-169.97193097 21.37842893 -162.11392475 7.45086124 -148.26611328 -2.90380859 C-112.19841841 -26.91429135 -33.53438726 -28.75393169 0 0 Z M84.08544922 245.89697266 C76.7519342 253.74759451 73.79508143 262.30594176 74.13232422 273.04150391 C75.57484471 282.52885024 80.7370997 290.79794885 88.20654297 296.76025391 C95.84583738 301.84278649 104.34856967 304.3690048 113.48779297 302.58056641 C123.75299817 299.87500845 131.92199615 294.15317985 137.35107422 284.98291016 C141.19826584 277.27478694 142.23705435 268.65106778 139.97998047 260.29541016 C136.34457396 250.6289145 130.07007966 243.29163163 120.81982422 238.66650391 C107.56485773 233.37364293 94.51203804 236.44538928 84.08544922 245.89697266 Z " fill="#020100" transform="translate(225.86767578125,135.95849609375)"/>
<path d="M0 0 C2.0391534 -0.0096964 4.07729455 -0.04071566 6.11621094 -0.07226562 C7.40269531 -0.07742188 8.68917969 -0.08257812 10.01464844 -0.08789062 C11.78654541 -0.10190918 11.78654541 -0.10190918 13.59423828 -0.11621094 C16.9543808 0.27209111 18.3152525 0.86372011 20.67871094 3.24023438 C21.50683594 5.87695313 21.50683594 5.87695313 21.92871094 8.92773438 C22.07566406 9.98863281 22.22261719 11.04953125 22.37402344 12.14257812 C22.74240521 15.88779284 22.82327646 19.48153077 22.67871094 23.24023438 C23.49662109 23.3871875 23.49662109 23.3871875 24.33105469 23.53710938 C29.53921962 24.56983951 33.86250472 26.10258213 38.53808594 28.63085938 C41.58981488 29.49959973 42.91601811 28.72783821 45.67871094 27.24023438 C48.20190325 25.2200579 50.58542826 23.0865766 52.98339844 20.91992188 C56.51448203 18.71939152 58.56524165 18.83332001 62.67871094 19.24023438 C66.66781885 21.83176619 69.80172335 25.34222838 73.11621094 28.74023438 C74.03853516 29.62710937 74.96085937 30.51398438 75.91113281 31.42773438 C83.26856699 38.8341818 83.26856699 38.8341818 83.56152344 43.53710938 C82.53601464 47.83880114 81.13929524 49.79638043 78.11621094 52.99023438 C74.81597937 56.07393229 74.81597937 56.07393229 73.70996094 60.12695312 C74.02964844 60.82433594 74.34933594 61.52171875 74.67871094 62.24023438 C75.1440625 63.34496094 75.60941406 64.4496875 76.08886719 65.58789062 C76.9165115 67.46056053 77.75302092 69.32892172 78.59472656 71.1953125 C79.85856577 74.06266682 80.67871094 76.06882633 80.67871094 79.24023438 C81.98195313 79.31371094 81.98195313 79.31371094 83.31152344 79.38867188 C84.46394531 79.4634375 85.61636719 79.53820312 86.80371094 79.61523438 C87.94066406 79.68484375 89.07761719 79.75445312 90.24902344 79.82617188 C93.68154446 80.24057646 96.49958401 80.88564986 99.67871094 82.24023438 C102.10731414 85.88313918 101.93632994 87.65327279 101.94433594 91.99023438 C101.94624939 92.64475586 101.94816284 93.29927734 101.95013428 93.97363281 C101.95149338 95.35547267 101.94781607 96.73732541 101.93945312 98.11914062 C101.92874902 100.23271397 101.93935695 102.34543742 101.95214844 104.45898438 C101.95082679 105.80273625 101.9482643 107.14648759 101.94433594 108.49023438 C101.94208008 109.71226562 101.93982422 110.93429687 101.9375 112.19335938 C101.67871094 115.24023438 101.67871094 115.24023438 99.67871094 118.24023438 C94.1990802 120.11352678 88.42497502 120.49007194 82.67871094 120.24023438 C82.42347656 121.38298828 82.42347656 121.38298828 82.16308594 122.54882812 C80.76545825 128.50361419 79.18937022 133.87201662 76.35058594 139.30273438 C75.50880825 141.73018631 75.7762476 142.85926726 76.67871094 145.24023438 C77.33871094 146.23023438 77.99871094 147.22023438 78.67871094 148.24023438 C78.72558594 150.39648438 78.72558594 150.39648438 78.42871094 152.74023438 C78.29722656 153.90039062 78.29722656 153.90039062 78.16308594 155.08398438 C77.67871094 157.24023438 77.67871094 157.24023438 75.67871094 160.24023438 C75.78183594 161.29210937 75.88496094 162.34398437 75.99121094 163.42773438 C75.53257792 169.02305718 72.58633524 171.44731529 68.67871094 175.24023438 C68.0921875 175.85898437 67.50566406 176.47773438 66.90136719 177.11523438 C63.9051896 180.05026548 62.46234264 181.18426068 58.17871094 181.49023438 C54.28257074 180.09875573 52.25470656 178.38653218 49.45214844 175.41992188 C47.72679055 174.02061404 47.72679055 174.02061404 45.47167969 174.33789062 C40.97357405 175.79112475 36.75356491 177.80712099 32.47363281 179.80078125 C31.78720703 180.11208984 31.10078125 180.42339844 30.39355469 180.74414062 C29.77601318 181.0310376 29.15847168 181.31793457 28.5222168 181.61352539 C26.67871094 182.24023438 26.67871094 182.24023438 22.67871094 182.24023438 C22.62972656 183.06007813 22.58074219 183.87992188 22.53027344 184.72460938 C22.418125 186.34109375 22.418125 186.34109375 22.30371094 187.99023438 C22.23410156 189.05757812 22.16449219 190.12492188 22.09277344 191.22460938 C21.70237965 194.06785468 21.23020363 195.85160534 19.67871094 198.24023438 C15.28578202 200.43669883 9.33289645 199.4260837 4.44799805 199.42553711 C2.25322042 199.42772242 0.0589464 199.44587943 -2.13574219 199.46484375 C-3.52962068 199.46777802 -4.92350155 199.46976259 -6.31738281 199.47070312 C-8.2228186 199.47686646 -8.2228186 199.47686646 -10.16674805 199.4831543 C-13.32128906 199.24023438 -13.32128906 199.24023438 -16.32128906 197.24023438 C-17.05175781 194.77929688 -17.05175781 194.77929688 -17.50878906 191.86523438 C-17.74662109 190.43050781 -17.74662109 190.43050781 -17.98925781 188.96679688 C-18.32128906 186.24023438 -18.32128906 186.24023438 -18.32128906 182.24023438 C-19.13919922 182.09328125 -19.13919922 182.09328125 -19.97363281 181.94335938 C-25.87998116 180.77218603 -30.88581235 178.82855662 -36.32128906 176.24023438 C-36.32128906 181.85023438 -36.32128906 187.46023438 -36.32128906 193.24023438 C-45.23128906 193.24023438 -54.14128906 193.24023438 -63.32128906 193.24023438 C-63.98128906 191.92023438 -64.64128906 190.60023438 -65.32128906 189.24023438 C-67.59361755 188.10407013 -68.8389206 188.11066516 -71.36240578 188.10156918 C-72.212853 188.09609473 -73.06330022 188.09062029 -73.93951857 188.08497995 C-75.3490307 188.08351279 -75.3490307 188.08351279 -76.78701782 188.08201599 C-78.27803593 188.07460903 -78.27803593 188.07460903 -79.79917562 188.06705242 C-83.15110881 188.05161664 -86.50302276 188.04330039 -89.85498047 188.03491211 C-92.24933544 188.02533836 -94.6436887 188.01532858 -97.03804016 188.00491333 C-102.20380561 187.98342873 -107.36957251 187.96499504 -112.53535843 187.9493084 C-120.0042728 187.92662274 -127.4731587 187.89847812 -134.94204895 187.86898912 C-147.05900966 187.82129719 -159.17598199 187.77803735 -171.29296875 187.73754883 C-183.0654389 187.69820204 -194.8378987 187.65677778 -206.61035156 187.61254883 C-207.69832328 187.60846242 -207.69832328 187.60846242 -208.80827422 187.60429346 C-212.4468624 187.59061411 -216.08545042 187.57689381 -219.72403836 187.56315315 C-249.92310053 187.44916323 -280.12218456 187.34243303 -310.32128906 187.24023438 C-310.36519547 182.75719281 -310.39162304 178.27420735 -310.41503906 173.79101562 C-310.42760742 172.52938599 -310.44017578 171.26775635 -310.453125 169.96789551 C-310.529239 150.52394118 -304.19756345 132.28086396 -290.32128906 118.24023438 C-273.57637427 103.32080827 -256.26171475 97.66914254 -234.07128906 98.05273438 C-232.53614608 98.06782297 -231.0009886 98.08150392 -229.46582031 98.09375 C-225.75066886 98.1263916 -222.03607573 98.1779379 -218.32128906 98.24023438 C-218.13590576 99.10543701 -217.95052246 99.97063965 -217.75952148 100.86206055 C-214.80471906 114.22563448 -210.47309575 125.2548192 -198.64550781 132.99023438 C-188.34849316 138.91493437 -179.16436971 140.48516781 -167.38378906 138.61523438 C-160.52840401 136.63826649 -153.30655183 133.37888985 -148.32128906 128.24023438 C-147.66128906 128.24023438 -147.00128906 128.24023438 -146.32128906 128.24023438 C-146.05316406 127.68207031 -145.78503906 127.12390625 -145.50878906 126.54882812 C-143.77515065 123.17849819 -141.75095183 119.9977139 -139.75878906 116.77539062 C-137.28815323 112.4182095 -136.02783957 108.35764096 -135.19628906 103.42773438 C-134.9046224 101.69856771 -134.61295573 99.96940104 -134.32128906 98.24023438 C-133.6705542 98.22565186 -133.01981934 98.21106934 -132.34936523 98.19604492 C-129.401906 98.12158889 -126.45558264 98.02492172 -123.50878906 97.92773438 C-122.48462891 97.90517578 -121.46046875 97.88261719 -120.40527344 97.859375 C-119.42236328 97.82392578 -118.43945312 97.78847656 -117.42675781 97.75195312 C-116.52078857 97.72576904 -115.61481934 97.69958496 -114.68139648 97.67260742 C-111.90530322 97.16402553 -111.03501063 96.43580343 -109.32128906 94.24023438 C-108.99128906 93.58023438 -108.66128906 92.92023438 -108.32128906 92.24023438 C-107.06316406 92.21960938 -105.80503906 92.19898438 -104.50878906 92.17773438 C-103.80109375 92.16613281 -103.09339844 92.15453125 -102.36425781 92.14257812 C-100.32128906 92.24023438 -100.32128906 92.24023438 -97.32128906 93.24023438 C-97.35609375 92.62535156 -97.39089844 92.01046875 -97.42675781 91.37695312 C-97.45382813 90.56871094 -97.48089844 89.76046875 -97.50878906 88.92773438 C-97.54359375 88.12722656 -97.57839844 87.32671875 -97.61425781 86.50195312 C-97.32128906 84.24023437 -97.32128906 84.24023437 -96.20800781 82.52148438 C-93.53733323 80.70785857 -91.13153842 80.47913503 -87.94628906 80.05273438 C-86.82480469 79.89417969 -85.70332031 79.735625 -84.54785156 79.57226562 C-81.77098896 79.286511 -79.10864581 79.17237738 -76.32128906 79.24023438 C-75.98097656 77.32210937 -75.98097656 77.32210937 -75.63378906 75.36523438 C-74.60980607 70.56389192 -72.62029041 66.71737678 -70.14941406 62.50195312 C-69.07924152 60.29219506 -69.07924152 60.29219506 -69.95800781 58.22460938 C-72.04845952 55.18177423 -74.39564863 52.38627023 -76.76269531 49.55664062 C-78.51489549 46.9524935 -79.20003266 45.37835 -79.32128906 42.24023438 C-76.37321939 36.60080083 -71.98983219 32.42797082 -67.57128906 27.92773438 C-66.78496094 27.09177734 -65.99863281 26.25582031 -65.18847656 25.39453125 C-59.3863899 19.4912454 -59.3863899 19.4912454 -54.64160156 18.37304688 C-50.48430766 19.45883422 -48.0183161 21.58282949 -44.94628906 24.42773438 C-40.89440308 27.99579857 -40.89440308 27.99579857 -35.83300781 29.37695312 C-33.46713407 28.55751195 -31.48501823 27.49794974 -29.32128906 26.24023438 C-27.47591651 25.48908977 -25.62151962 24.75973715 -23.75878906 24.05273438 C-22.27855833 23.45117942 -20.79899127 22.84797411 -19.32128906 22.24023438 C-19.15693359 20.59474609 -19.15693359 20.59474609 -18.98925781 18.91601562 C-18.8297324 17.46151921 -18.66954093 16.00709575 -18.50878906 14.55273438 C-18.4034082 13.47088867 -18.4034082 13.47088867 -18.29589844 12.3671875 C-17.79645398 7.99205402 -17.05657529 4.84364671 -14.32128906 1.24023438 C-10.11218267 -0.86431882 -4.63014987 0.01334978 0 0 Z M-21.36816406 79.09570312 C-28.70167908 86.94632498 -31.65853185 95.50467223 -31.32128906 106.24023438 C-29.87876857 115.72758071 -24.71651359 123.99667932 -17.24707031 129.95898438 C-9.60777591 135.04151696 -1.10504361 137.56773527 8.03417969 135.77929688 C18.29938489 133.07373891 26.46838287 127.35191031 31.89746094 118.18164062 C35.74465256 110.47351741 36.78344107 101.84979825 34.52636719 93.49414062 C30.89096067 83.82764497 24.61646638 76.49036209 15.36621094 71.86523438 C2.11124445 66.5723734 -10.94157524 69.64411975 -21.36816406 79.09570312 Z " fill="#88B854" transform="translate(331.3212890625,302.759765625)"/>
<path d="M0 0 C3.125 0.375 3.125 0.375 5.5625 1.9375 C7.36953673 4.7564773 7.21521602 6.08046206 6.65988159 9.30291748 C5.59453313 13.42998029 3.73716586 17.21864138 1.94140625 21.0703125 C1.31805641 22.43601883 1.31805641 22.43601883 0.68211365 23.82931519 C-0.64096071 26.72351222 -1.97632954 29.61182913 -3.3125 32.5 C-4.64233663 35.39651656 -5.96965558 38.29417502 -7.29640198 41.19210815 C-8.12094396 42.99067207 -8.94778008 44.7881865 -9.77720642 46.58450317 C-10.15422195 47.40240326 -10.53123749 48.22030334 -10.91967773 49.06298828 C-11.24975327 49.77689728 -11.5798288 50.49080627 -11.91990662 51.22634888 C-12.96870531 53.58580663 -13.92951648 55.97249527 -14.875 58.375 C-13.3673558 58.35834541 -13.3673558 58.35834541 -11.82925415 58.34135437 C-2.32584111 58.23969806 7.17746064 58.16490068 16.68129539 58.11593914 C21.5665706 58.08992051 26.4514045 58.05466487 31.33642578 57.99780273 C36.05676189 57.94320563 40.77667535 57.91352138 45.49730301 57.90061378 C47.29214754 57.89142337 49.08697071 57.87347703 50.88163376 57.84634972 C62.23628628 57.68164934 70.5485491 58.09227714 79.74609375 65.48046875 C80.34550781 66.16753906 80.94492187 66.85460937 81.5625 67.5625 C82.48869141 68.57376953 82.48869141 68.57376953 83.43359375 69.60546875 C88.76526186 78.33561354 88.57148381 87.96528672 88.5234375 97.875 C88.52546378 99.36132957 88.5283798 100.84765817 88.53213501 102.33398438 C88.53653236 105.433691 88.5302117 108.53313648 88.51611328 111.6328125 C88.4990227 115.57992346 88.50887792 119.52642217 88.52683067 123.47351074 C88.53773912 126.53813175 88.53419008 129.60261073 88.5264473 132.66723633 C88.52446473 134.12150141 88.52683517 135.57577995 88.53388596 137.0300293 C88.57882352 148.89958158 87.82115186 159.52109482 79.125 168.375 C72.12396801 174.29200123 64.24803691 175.49224785 55.30078125 175.41796875 C53.83958862 175.40866333 53.83958862 175.40866333 52.34887695 175.39916992 C51.61499756 175.39119385 50.88111816 175.38321777 50.125 175.375 C50.14594727 176.11137695 50.16689453 176.84775391 50.18847656 177.60644531 C50.27167144 180.94582442 50.32367157 184.28498549 50.375 187.625 C50.40851563 188.78386719 50.44203125 189.94273437 50.4765625 191.13671875 C50.48945313 192.25175781 50.50234375 193.36679688 50.515625 194.515625 C50.53657227 195.54204102 50.55751953 196.56845703 50.57910156 197.62597656 C50.125 200.375 50.125 200.375 48.47558594 202.74121094 C45.41119448 204.87113487 43.79261396 204.90896404 40.125 204.375 C37.77001953 203.09667969 37.77001953 203.09667969 35.5078125 201.296875 C34.651875 200.62914062 33.7959375 199.96140625 32.9140625 199.2734375 C32.03492188 198.56445312 31.15578125 197.85546875 30.25 197.125 C27.57968525 195.01987457 24.90733048 192.92262619 22.203125 190.86108398 C19.93236549 189.02707826 17.94551389 187.23295233 15.890625 185.18774414 C3.52862714 173.5793646 -9.97415412 174.87916991 -26.125 175.3125 C-30.03121495 175.36884894 -33.93690713 175.40789813 -37.84344482 175.43299866 C-40.25685243 175.45357744 -42.67021018 175.49435635 -45.08282471 175.55955505 C-52.78802283 175.69117601 -59.50029718 174.60734501 -66.875 172.375 C-67.00710876 173.1173288 -67.13921753 173.85965759 -67.27532959 174.6244812 C-67.80809853 177.06814186 -68.47710175 179.0999126 -69.46972656 181.38330078 C-69.79386536 182.13402863 -70.11800415 182.88475647 -70.45196533 183.65823364 C-70.80297302 184.45421967 -71.15398071 185.25020569 -71.515625 186.0703125 C-71.87968445 186.89957245 -72.2437439 187.7288324 -72.61883545 188.58322144 C-73.38931711 190.33101125 -74.16275925 192.0774986 -74.93896484 193.82275391 C-76.12123298 196.49149667 -77.28140318 199.16917524 -78.44140625 201.84765625 C-79.19396529 203.54747209 -79.94782819 205.24671139 -80.703125 206.9453125 C-81.04603577 207.74534698 -81.38894653 208.54538147 -81.74224854 209.36965942 C-83.71280543 213.7258289 -85.16340653 216.58060065 -89.875 218.375 C-93.125 217.6875 -93.125 217.6875 -95.875 216.375 C-97.52278587 213.07942827 -97.39901599 209.97672434 -96.25476074 206.47915649 C-95.34499673 204.28632176 -94.36746094 202.1377048 -93.359375 199.98828125 C-92.99188644 199.18103104 -92.62439789 198.37378082 -92.24577332 197.54206848 C-91.0490896 194.91905287 -89.83711462 192.30341553 -88.625 189.6875 C-87.80031423 187.88645368 -86.97683368 186.08485503 -86.15454102 184.28271484 C-84.50901687 180.67793818 -82.85885054 177.07534465 -81.20556641 173.47412109 C-78.01446605 166.5093027 -74.90872697 159.50737854 -71.8125 152.5 C-70.86372279 150.35657533 -69.91455102 148.21332524 -68.96484375 146.0703125 C-68.58191162 145.20422363 -68.19897949 144.33813477 -67.80444336 143.44580078 C-67.18955539 142.07582974 -66.54655161 140.71810323 -65.875 139.375 C-80.53782261 138.0676764 -89.08430663 140.56981915 -100.4519043 150.00268555 C-102.14665954 151.44553291 -103.83337987 152.89788064 -105.51123047 154.36035156 C-108.82260597 157.18264764 -112.30854312 159.70076517 -115.875 162.1875 C-116.926875 162.93644531 -117.97875 163.68539062 -119.0625 164.45703125 C-126.31340087 169.40174282 -126.31340087 169.40174282 -129.5 169.25 C-132.15833624 168.27061297 -133.17829308 167.62810341 -134.875 165.375 C-135.21557617 162.64770508 -135.21557617 162.64770508 -135.16796875 159.39453125 C-135.15830078 158.23115234 -135.14863281 157.06777344 -135.13867188 155.86914062 C-135.11353516 154.65419922 -135.08839844 153.43925781 -135.0625 152.1875 C-135.04219727 150.34768555 -135.04219727 150.34768555 -135.02148438 148.47070312 C-134.98608741 145.43836336 -134.9367076 142.40690004 -134.875 139.375 C-136.009375 139.40980469 -137.14375 139.44460937 -138.3125 139.48046875 C-149.63036163 139.73024744 -157.37949226 139.42941384 -166.11328125 131.34765625 C-171.30627046 125.53289006 -172.99310259 119.04528342 -173.05200195 111.40014648 C-173.05857315 110.69400711 -173.06514435 109.98786774 -173.07191467 109.2603302 C-173.09162926 106.92225023 -173.1033098 104.58423463 -173.11328125 102.24609375 C-173.11735678 101.44491686 -173.1214323 100.64373997 -173.12563133 99.81828499 C-173.14649018 95.57278833 -173.16078933 91.32732392 -173.17016602 87.08178711 C-173.18119426 82.71632043 -173.21555265 78.35136856 -173.25533772 73.98608303 C-173.28161214 70.6135215 -173.28986768 67.24108022 -173.29344749 63.86842537 C-173.29829024 62.26061614 -173.30983759 60.65281145 -173.32848549 59.04510307 C-173.44509478 48.31996972 -173.15607924 38.8640817 -165.625 30.5 C-159.23997746 24.69045159 -152.33996153 22.26986847 -143.760849 22.22782898 C-142.75320496 22.22067368 -141.74556091 22.21351837 -140.7073822 22.20614624 C-139.61277176 22.20345734 -138.51816132 22.20076843 -137.39038086 22.19799805 C-136.2287442 22.19142685 -135.06710754 22.18485565 -133.87026978 22.17808533 C-130.02679374 22.15837966 -126.18335677 22.14669466 -122.33984375 22.13671875 C-120.36677844 22.13060546 -120.36677844 22.13060546 -118.35385323 22.12436867 C-112.10679856 22.10533043 -105.85975558 22.09109908 -99.61267751 22.0827567 C-92.4292138 22.0730027 -85.24605973 22.04672596 -78.06270498 22.00625581 C-72.49303346 21.97596681 -66.92345003 21.96127562 -61.35369784 21.95797569 C-58.03552028 21.95563885 -54.71774702 21.94484468 -51.39964104 21.92151451 C-47.68797379 21.89704282 -43.97710488 21.89810355 -40.26538086 21.9050293 C-39.18494003 21.89221924 -38.10449921 21.87940918 -36.99131775 21.86621094 C-29.33652951 21.91794769 -22.98819316 23.58587282 -15.875 26.375 C-15.52002441 25.58746338 -15.16504883 24.79992676 -14.79931641 23.98852539 C-13.37125406 20.82338372 -11.93553248 17.66176028 -10.5 14.5 C-9.99210938 13.37207031 -9.48421875 12.24414062 -8.9609375 11.08203125 C-8.22617187 9.46748047 -8.22617187 9.46748047 -7.4765625 7.8203125 C-7.02619629 6.82531738 -6.57583008 5.83032227 -6.11181641 4.80517578 C-4.43484303 1.5101515 -3.73574437 0.487271 0 0 Z " fill="#010102" transform="translate(414.875,9.625)"/>
<path d="M0 0 C2.67172202 0.54518792 5.29477925 1.14900841 7.9375 1.8125 C10.18069819 2.36679607 12.42463436 2.91453364 14.67358398 3.44506836 C16.15763618 3.79906675 17.63718777 4.17292042 19.10961914 4.57250977 C28.09502241 6.76313753 37.37569286 6.34560971 46.5625 6.3125 C47.46996979 6.31233887 48.37743958 6.31217773 49.31240845 6.31201172 C63.34920834 6.29467221 76.93344703 5.42005844 90.82177734 3.28125 C93.56064322 2.92761029 96.24280575 2.89026093 99 3 C99.3403125 3.70125 99.680625 4.4025 100.03125 5.125 C103.87373396 12.64645796 108.21654725 18.2740461 114.890625 23.47265625 C122.22921864 29.19994998 125.23587142 37.00581462 127 46 C127.18970972 48.73451803 127.30435703 51.36319773 127.30078125 54.09375 C127.30506638 54.84354126 127.3093515 55.59333252 127.31376648 56.36584473 C127.31947325 57.94570922 127.32003721 59.52559997 127.31567383 61.10546875 C127.31254423 63.4666295 127.3359118 65.82649632 127.36132812 68.1875 C127.46155483 91.83063835 121.19359229 112.18143076 104.8125 129.75 C89.87914172 143.92756877 70.74607207 151.58108671 50.22729492 151.34692383 C32.49126601 150.8157782 16.6076531 145.72764839 3 134 C2.2884375 133.44183594 1.576875 132.88367188 0.84375 132.30859375 C-14.26589265 119.91558206 -22.24304692 101.01469971 -25 82 C-25.29571591 77.40740341 -25.39689839 72.81780001 -25.45996094 68.21728516 C-25.48640107 66.75308218 -25.52714124 65.28905926 -25.58300781 63.82568359 C-26.11017093 49.79234733 -22.48305009 40.3807399 -13.609375 29.3125 C-8.11098199 21.41189646 -3.82092641 12.03797962 -1.47265625 2.72265625 C-1 1 -1 1 0 0 Z " fill="#FDA902" transform="translate(104,228)"/>
<path d="M0 0 C1.2375 -0.020625 2.475 -0.04125 3.75 -0.0625 C4.79414063 -0.07990234 4.79414063 -0.07990234 5.859375 -0.09765625 C8 0 8 0 12 1 C12.33 8.92 12.66 16.84 13 25 C18.17505503 25.61724993 18.17505503 25.61724993 23.35107422 26.22631836 C28.77777778 26.88888889 28.77777778 26.88888889 31 28 C31.74609375 29.71826172 31.74609375 29.71826172 32.4375 31.9296875 C32.69273437 32.72503906 32.94796875 33.52039063 33.2109375 34.33984375 C33.47132813 35.17644531 33.73171875 36.01304687 34 36.875 C34.51664009 38.51955236 35.03732159 40.16284186 35.5625 41.8046875 C35.79066406 42.53671387 36.01882813 43.26874023 36.25390625 44.02294922 C37.01680977 46.26918259 37.01680977 46.26918259 39 49 C38.64823411 53.54518554 35.32513717 56.26659802 32.3984375 59.48828125 C30.76915009 61.99458633 30.76915009 61.99458633 30.78125 65.23828125 C32.56741897 70.75136046 36.02388621 73.8973311 40.125 77.875 C40.87265625 78.64585937 41.6203125 79.41671875 42.390625 80.2109375 C45.76627904 83.55130595 48.17705457 85.7288412 52.734375 87.23046875 C56.67197313 86.95257606 58.1406561 85.96603575 61.125 83.4375 C63.5703125 81.37109375 63.5703125 81.37109375 66 80 C68.45223747 80.64624492 70.18954462 81.18954462 72 83 C72.08631874 84.34267413 72.10706473 85.68974322 72.09765625 87.03515625 C72.09515869 87.76355713 72.09266113 88.49195801 72.09008789 89.24243164 C72.07643188 90.63836548 72.07643188 90.63836548 72.0625 92.0625 C72.041875 95.011875 72.02125 97.96125 72 101 C63.09 101 54.18 101 45 101 C44.34 99.68 43.68 98.36 43 97 C40.72767152 95.86383576 39.48236847 95.87043078 36.95888329 95.8613348 C36.10843606 95.85586036 35.25798884 95.85038591 34.38177049 95.84474558 C33.44209574 95.84376747 32.50242099 95.84278936 31.53427124 95.84178162 C30.54025917 95.83684364 29.54624709 95.83190566 28.52211344 95.82681805 C25.17018025 95.81138226 21.8182663 95.80306602 18.46630859 95.79467773 C16.07195362 95.78510399 13.67760036 95.77509421 11.2832489 95.76467896 C6.11748345 95.74319435 0.95171656 95.72476067 -4.21406937 95.70907402 C-11.68298374 95.68638836 -19.15186964 95.65824374 -26.62075989 95.62875474 C-38.7377206 95.58106282 -50.85469293 95.53780298 -62.97167969 95.49731445 C-74.74414983 95.45796766 -86.51660964 95.41654341 -98.2890625 95.37231445 C-99.37703422 95.36822804 -99.37703422 95.36822804 -100.48698516 95.36405908 C-104.12557334 95.35037974 -107.76416136 95.33665944 -111.4027493 95.32291877 C-141.60181147 95.20892886 -171.80089549 95.10219865 -202 95 C-202.04390641 90.51695844 -202.07033398 86.03397298 -202.09375 81.55078125 C-202.10631836 80.28915161 -202.11888672 79.02752197 -202.13183594 77.72766113 C-202.20794993 58.2837068 -195.87627439 40.04062959 -182 26 C-165.2550852 11.0805739 -147.94042568 5.42890817 -125.75 5.8125 C-124.21485702 5.8275886 -122.67969954 5.84126955 -121.14453125 5.85351562 C-117.4293798 5.88615722 -113.71478667 5.93770353 -110 6 C-109.8146167 6.86520264 -109.6292334 7.73040527 -109.43823242 8.62182617 C-106.48343 21.98540011 -102.15180668 33.01458483 -90.32421875 40.75 C-80.0272041 46.67469999 -70.84308065 48.24493344 -59.0625 46.375 C-52.20711495 44.39803211 -44.98526277 41.13865547 -40 36 C-39.34 36 -38.68 36 -38 36 C-37.5978125 35.16275391 -37.5978125 35.16275391 -37.1875 34.30859375 C-35.45386159 30.93826381 -33.42966277 27.75747952 -31.4375 24.53515625 C-28.96686417 20.17797513 -27.70655051 16.11740659 -26.875 11.1875 C-26.58333333 9.45833333 -26.29166667 7.72916667 -26 6 C-25.02389771 5.97812622 -25.02389771 5.97812622 -24.02807617 5.95581055 C-21.08061694 5.88135451 -18.13429358 5.78468734 -15.1875 5.6875 C-14.16333984 5.66494141 -13.13917969 5.64238281 -12.08398438 5.61914062 C-11.10107422 5.58369141 -10.11816406 5.54824219 -9.10546875 5.51171875 C-8.19949951 5.48553467 -7.29353027 5.45935059 -6.36010742 5.43237305 C-3.58401416 4.92379115 -2.71372157 4.19556906 -1 2 C-0.67 1.34 -0.34 0.68 0 0 Z " fill="#EE4950" transform="translate(223,395)"/>
<path d="M0 0 C0.81779434 -0.0033284 1.63558868 -0.0066568 2.47816467 -0.01008606 C4.20524539 -0.01512721 5.93233576 -0.01749526 7.65942383 -0.01733398 C10.24642947 -0.01949884 12.8329927 -0.03762453 15.41992188 -0.05664062 C25.9119256 -0.09272587 35.97134645 0.59097269 46.34765625 2.16796875 C47.93404907 2.38706909 47.93404907 2.38706909 49.55249023 2.6105957 C68.31591836 5.24609079 82.56276227 9.75700366 94.72265625 25.23046875 C95.62146577 26.52677994 96.49817413 27.8388106 97.34765625 29.16796875 C97.72535156 29.74546875 98.10304687 30.32296875 98.4921875 30.91796875 C101.05656873 35.37442153 101.79922326 39.60118329 102.59765625 44.66796875 C103.63202617 50.87040489 105.41035122 54.14637942 110.21875 58.2109375 C116.56825179 64.04781896 122.20994356 73.77388553 122.81640625 82.4375 C122.85041707 83.95147677 122.86017118 85.46616172 122.84765625 86.98046875 C122.84266113 87.77437012 122.83766602 88.56827148 122.83251953 89.38623047 C122.61676884 96.66074848 120.84239712 102.33473204 115.85546875 107.8046875 C110.84242064 113.61743614 110.51157143 118.40945964 110.59765625 125.91796875 C110.58999061 127.9544726 110.57467617 129.99096566 110.55078125 132.02734375 C110.56093262 133.36490723 110.56093262 133.36490723 110.57128906 134.72949219 C110.33334475 137.32402039 109.65886862 138.93851863 108.34765625 141.16796875 C108.18910156 140.48992187 108.03054687 139.811875 107.8671875 139.11328125 C105.0706696 127.95811039 100.96255713 118.10340915 91.34765625 111.23046875 C85.25642043 106.77122441 82.43688792 102.79460704 81.09765625 95.29296875 C80.96875 94.34679687 80.83984375 93.400625 80.70703125 92.42578125 C80.58004133 90.20463199 80.58004133 90.20463199 79.34765625 89.16796875 C74.63807796 88.94370312 70.43549779 89.0474181 65.8359375 90.078125 C37.44793329 95.97730612 0.86566151 98.78916529 -26.359375 86.52734375 C-30.07944598 84.99165609 -31.84142718 85.01583118 -35.65234375 86.16796875 C-38.36102921 88.87665421 -38.92591372 91.95828882 -39.96484375 95.54296875 C-43.46846443 107.01215153 -47.65649177 116.50740814 -54.62109375 126.29443359 C-59.51421719 133.22802962 -63.95093677 140.51728265 -64.65234375 149.16796875 C-76.08692488 135.35825207 -80.01834162 114.09587639 -79.96484375 96.73046875 C-79.98901367 95.1671582 -79.98901367 95.1671582 -80.01367188 93.57226562 C-80.01946058 84.23508014 -78.24998764 75.7837645 -74.65234375 67.16796875 C-70.76904254 68.89919416 -67.44917681 71.36892746 -64.02734375 73.85546875 C-63.10127319 74.51832886 -63.10127319 74.51832886 -62.15649414 75.19458008 C-59.30570855 77.23592441 -56.48086676 79.29810149 -53.6875 81.41796875 C-52.40166016 82.37703125 -52.40166016 82.37703125 -51.08984375 83.35546875 C-50.34605469 83.92652344 -49.60226563 84.49757813 -48.8359375 85.0859375 C-46.02448971 86.47908784 -44.58809504 86.11644224 -41.65234375 85.16796875 C-40.34953117 84.06962209 -40.34953117 84.06962209 -40.30078125 81.37109375 C-40.35318212 78.08988587 -40.35318212 78.08988587 -42.56640625 75.96484375 C-43.46101563 75.289375 -44.355625 74.61390625 -45.27734375 73.91796875 C-46.76234375 72.78101563 -46.76234375 72.78101563 -48.27734375 71.62109375 C-49.39985521 70.7999726 -50.52500006 69.9824429 -51.65234375 69.16796875 C-52.58240234 68.49217773 -52.58240234 68.49217773 -53.53125 67.80273438 C-56.63121788 65.55760613 -59.74551376 63.33494122 -62.87890625 61.13671875 C-65.65234375 59.16796875 -65.65234375 59.16796875 -66.65234375 58.16796875 C-67.6159947 42.76808535 -65.24410399 30.92500821 -54.72265625 18.9765625 C-40.1494974 4.92583765 -19.72952156 0.02863426 0 0 Z " fill="#798994" transform="translate(132.65234375,129.83203125)"/>
<path d="M0 0 C1.15059906 -0.00554901 2.30119812 -0.01109802 3.48666382 -0.01681519 C7.27335832 -0.02858378 11.05884895 -0.00436356 14.84545898 0.02148438 C17.48526454 0.02319616 20.1250718 0.02312911 22.76487732 0.0213623 C28.29017624 0.02141575 33.81513179 0.04109934 39.34033203 0.07324219 C45.71499222 0.11014807 52.08920333 0.11891395 58.46395642 0.11194468 C64.61495994 0.10562539 70.76578587 0.11663424 76.9167614 0.13591003 C79.52621653 0.14293355 82.13568517 0.14606536 84.74514961 0.1452179 C88.39284761 0.14701827 92.03991179 0.1684217 95.6875 0.1953125 C96.76250259 0.1923819 97.83750519 0.18945129 98.94508362 0.18643188 C104.8054709 0.25298961 109.14935747 0.67724121 114.27905273 3.61523438 C115.26905273 5.10023437 115.26905273 5.10023437 116.27905273 6.61523438 C115.53860708 8.9633037 114.72126779 10.98878206 113.67749023 13.20117188 C113.37361893 13.8743042 113.06974762 14.54743652 112.75666809 15.2409668 C111.73506623 17.49668974 110.69444676 19.74312453 109.65405273 21.99023438 C108.93422276 23.57110115 108.21590983 25.15265948 107.49902344 26.73486328 C106.34824389 29.27325206 105.19600633 31.81091256 104.03858948 34.34628296 C100.93494186 41.1456122 97.88702415 47.96849936 94.86108398 54.80273438 C94.41132202 55.81832428 93.96156006 56.83391418 93.49816895 57.88027954 C92.59814026 59.91336921 91.69829746 61.94654118 90.79864502 63.97979736 C88.66357379 68.80491161 86.52602066 73.62890706 84.38452148 78.45117188 C84.01325638 79.29035156 83.64199127 80.12953125 83.25947571 80.99414062 C81.36534215 85.25645343 79.40647581 89.46231071 77.27905273 93.61523438 C76.40394043 93.57221191 75.52882813 93.52918945 74.62719727 93.48486328 C52.01780958 92.36428878 52.01780958 92.36428878 32.86547852 103.09277344 C31.57413602 104.33732585 30.29869061 105.59865284 29.04223633 106.87841797 C26.47939104 109.40293768 23.71099932 111.40671279 20.77905273 113.49023438 C19.94374023 114.10640625 19.10842773 114.72257812 18.24780273 115.35742188 C16.27905273 116.61523438 16.27905273 116.61523438 14.27905273 116.61523438 C14.26447021 116.01984863 14.2498877 115.42446289 14.23486328 114.81103516 C14.16050929 112.12010387 14.06381087 109.43043104 13.96655273 106.74023438 C13.93271484 105.33451172 13.93271484 105.33451172 13.89819336 103.90039062 C13.86274414 103.00449219 13.82729492 102.10859375 13.79077148 101.18554688 C13.7645874 100.35812988 13.73840332 99.53071289 13.71142578 98.67822266 C13.44808637 96.22195506 13.44808637 96.22195506 10.27905273 94.61523438 C7.86066765 94.31295712 7.86066765 94.31295712 5.16577148 94.34179688 C4.16481445 94.32117188 3.16385742 94.30054688 2.13256836 94.27929688 C0.03369062 94.25340079 -2.06529529 94.23508479 -4.16430664 94.22460938 C-10.32576843 94.08233059 -14.03363043 93.74128674 -18.72094727 89.61523438 C-22.97447257 84.78690836 -23.84707259 82.36800044 -23.89794922 75.96582031 C-23.90452042 75.28266251 -23.91109161 74.5995047 -23.91786194 73.89564514 C-23.93760352 71.63029879 -23.94926061 69.36501883 -23.95922852 67.09960938 C-23.96330404 66.3256205 -23.96737957 65.55163162 -23.9715786 64.75418854 C-23.99244504 60.65595262 -24.00674309 56.55775022 -24.01611328 52.45947266 C-24.02716678 48.23146027 -24.06155223 44.00397577 -24.10128498 39.77614975 C-24.12746676 36.52127116 -24.13580657 33.2665179 -24.13939476 30.01154327 C-24.14425832 28.45345757 -24.15586586 26.89537738 -24.17443275 25.33739471 C-24.19885438 23.15191734 -24.19785437 20.9677994 -24.19091797 18.78222656 C-24.19678421 17.54027527 -24.20265045 16.29832397 -24.20869446 15.01873779 C-23.51407299 10.17166421 -21.72858614 7.41278555 -18.08797264 4.15314102 C-12.34053744 -0.03880908 -6.92211639 -0.08556531 0 0 Z " fill="#7AB2E5" transform="translate(277.720947265625,43.384765625)"/>
<path d="M0 0 C1.50007426 -0.02365987 3.00073724 -0.01945915 4.5007782 0.00622559 C5.73055893 -0.00209793 5.73055893 -0.00209793 6.98518372 -0.0105896 C9.70020188 -0.0224167 12.41356181 0.00192524 15.12846375 0.02770996 C17.0155225 0.0294208 18.90258363 0.02935565 20.78964233 0.02758789 C24.74843529 0.02924305 28.70666329 0.04797196 32.66532898 0.07946777 C37.73291172 0.11906461 42.7997513 0.12352365 47.8674593 0.11600494 C51.76662977 0.11293013 55.66563408 0.12507532 59.56476402 0.14213562 C61.43261357 0.1491553 63.30048196 0.15229141 65.1683445 0.15144348 C67.78470756 0.15324753 70.40019257 0.17468338 73.0164032 0.20153809 C73.78493118 0.19860748 74.55345917 0.19567688 75.34527588 0.19265747 C80.11797569 0.26798493 83.39743741 1.09818162 87.4526825 3.62145996 C92.09094932 8.64624902 93.6982439 12.27332344 93.74320984 19.09899902 C93.75596954 20.41426575 93.76872925 21.72953247 93.78187561 23.08465576 C93.78493395 24.51879733 93.78716134 25.95294087 93.78862 27.38708496 C93.79505105 28.86436084 93.80177964 30.34163546 93.80879211 31.81890869 C93.82076129 34.9157201 93.8244735 38.01242002 93.82328796 41.10925293 C93.8230852 45.0613037 93.8503443 49.01263195 93.88483238 52.96451187 C93.90716811 56.01704128 93.91112342 59.06939892 93.91006851 62.12200165 C93.9124161 63.57794424 93.92119187 65.03389218 93.93673325 66.48975372 C94.01341268 74.41732202 93.98072903 80.8433688 89.4526825 87.62145996 C85.35266782 91.42861645 82.88290848 92.73064865 77.366745 92.79724121 C76.35354187 92.82108887 75.34033875 92.84493652 74.2964325 92.86950684 C72.15861185 92.91231514 70.02052933 92.94365269 67.88237 92.96325684 C66.86658875 92.99097168 65.8508075 93.01868652 64.804245 93.04724121 C63.87434753 93.06182373 62.94445007 93.07640625 61.9863739 93.09143066 C58.67625885 93.78388198 57.48574708 94.95470155 55.4526825 97.62145996 C54.82421233 99.72396623 54.82421233 99.72396623 54.8433075 101.94958496 C54.79496765 103.14841309 54.79496765 103.14841309 54.74565125 104.37145996 C54.73147156 105.19645996 54.71729187 106.02145996 54.7026825 106.87145996 C54.65820984 108.13216309 54.65820984 108.13216309 54.61283875 109.41833496 C54.54236614 111.48553146 54.49523311 113.55350029 54.4526825 115.62145996 C51.56821818 114.26205463 49.04847661 112.70962372 46.47612 110.82849121 C45.34496765 110.00574707 45.34496765 110.00574707 44.19096375 109.16638184 C43.41108093 108.59468262 42.63119812 108.0229834 41.8276825 107.43395996 C39.54819698 105.76997437 37.26851163 104.10861761 34.96803284 102.47373962 C32.4526825 100.62145996 32.4526825 100.62145996 30.32307434 98.78309631 C23.07340126 92.87373009 16.61657626 92.63280963 7.5464325 92.75427246 C6.13060149 92.74741183 4.7147828 92.73733448 3.29899597 92.72421265 C-0.3962283 92.69782707 -4.09015555 92.71177552 -7.78535461 92.73553467 C-12.29436001 92.75731319 -16.80331167 92.73301165 -21.31229401 92.71348381 C-24.81484784 92.69886194 -28.31685155 92.6917277 -31.81941223 92.70767212 C-33.69276245 92.71164505 -33.69276245 92.71164505 -35.60395813 92.71569824 C-36.70630798 92.7212674 -37.80865784 92.72683655 -38.94441223 92.73257446 C-41.5473175 92.62145996 -41.5473175 92.62145996 -43.5473175 91.62145996 C-42.88743063 86.99944855 -41.08156477 83.0258377 -39.14497375 78.82458496 C-38.79539612 78.05433487 -38.44581848 77.28408478 -38.08564758 76.49049377 C-37.32783985 74.8216958 -36.5677541 73.15393081 -35.8056488 71.48709106 C-33.7608917 67.01461214 -31.73222749 62.53485195 -29.7035675 58.05505371 C-29.28212967 57.12521164 -28.86069183 56.19536957 -28.42648315 55.23735046 C-25.38933212 48.52206097 -22.40585015 41.78461561 -19.4535675 35.03161621 C-19.04448654 34.09600861 -18.63540558 33.160401 -18.21392822 32.19644165 C-16.6194219 28.54589755 -15.0268605 24.89453344 -13.44041443 21.24047852 C-12.34461752 18.71655501 -11.24498503 16.19433008 -10.14497375 13.67224121 C-9.66326721 12.55608177 -9.66326721 12.55608177 -9.17182922 11.41737366 C-8.86914124 10.72457809 -8.56645325 10.03178253 -8.2545929 9.31799316 C-7.99577835 8.72138382 -7.73696381 8.12477448 -7.4703064 7.51008606 C-7.0134269 6.57521614 -7.0134269 6.57521614 -6.5473175 5.62145996 C-6.00098663 4.28863228 -6.00098663 4.28863228 -5.44361877 2.92887878 C-3.5473175 0.62145996 -3.5473175 0.62145996 0 0 Z " fill="#E4E4E4" transform="translate(397.5473175048828,79.3785400390625)"/>
<path d="M0 0 C2.0391534 -0.0096964 4.07729455 -0.04071566 6.11621094 -0.07226562 C7.40269531 -0.07742188 8.68917969 -0.08257812 10.01464844 -0.08789062 C11.78654541 -0.10190918 11.78654541 -0.10190918 13.59423828 -0.11621094 C16.9543808 0.27209111 18.3152525 0.86372011 20.67871094 3.24023438 C21.50683594 5.87695312 21.50683594 5.87695312 21.92871094 8.92773438 C22.07566406 9.98863281 22.22261719 11.04953125 22.37402344 12.14257812 C22.74240521 15.88779284 22.82327646 19.48153077 22.67871094 23.24023438 C23.22398437 23.33820313 23.76925781 23.43617188 24.33105469 23.53710938 C29.53921962 24.56983951 33.86250472 26.10258213 38.53808594 28.63085938 C41.58981488 29.49959973 42.91601811 28.72783821 45.67871094 27.24023438 C48.20190325 25.2200579 50.58542826 23.0865766 52.98339844 20.91992188 C56.51448203 18.71939152 58.56524165 18.83332001 62.67871094 19.24023438 C66.66781885 21.83176619 69.80172335 25.34222838 73.11621094 28.74023438 C74.03853516 29.62710937 74.96085938 30.51398438 75.91113281 31.42773438 C83.26856699 38.8341818 83.26856699 38.8341818 83.56152344 43.53710938 C82.53601464 47.83880114 81.13929524 49.79638043 78.11621094 52.99023438 C74.81597937 56.07393229 74.81597937 56.07393229 73.70996094 60.12695312 C74.02964844 60.82433594 74.34933594 61.52171875 74.67871094 62.24023438 C75.1440625 63.34496094 75.60941406 64.4496875 76.08886719 65.58789062 C76.9165115 67.46056053 77.75302092 69.32892172 78.59472656 71.1953125 C79.85856577 74.06266682 80.67871094 76.06882633 80.67871094 79.24023438 C81.98195313 79.31371094 81.98195313 79.31371094 83.31152344 79.38867188 C84.46394531 79.4634375 85.61636719 79.53820312 86.80371094 79.61523438 C87.94066406 79.68484375 89.07761719 79.75445312 90.24902344 79.82617188 C93.68154446 80.24057646 96.49958401 80.88564986 99.67871094 82.24023438 C102.10731414 85.88313918 101.93632994 87.65327279 101.94433594 91.99023438 C101.94624939 92.64475586 101.94816284 93.29927734 101.95013428 93.97363281 C101.95149338 95.35547267 101.94781607 96.73732541 101.93945312 98.11914062 C101.92874902 100.23271397 101.93935695 102.34543742 101.95214844 104.45898438 C101.95082679 105.80273625 101.9482643 107.14648759 101.94433594 108.49023438 C101.94208008 109.71226562 101.93982422 110.93429687 101.9375 112.19335938 C101.67871094 115.24023438 101.67871094 115.24023438 99.67871094 118.24023438 C94.1990802 120.11352678 88.42497502 120.49007194 82.67871094 120.24023438 C82.50855469 121.00207031 82.33839844 121.76390625 82.16308594 122.54882812 C80.76545825 128.50361419 79.18937022 133.87201662 76.35058594 139.30273438 C75.50880825 141.73018631 75.7762476 142.85926726 76.67871094 145.24023438 C77.33871094 146.23023438 77.99871094 147.22023438 78.67871094 148.24023438 C78.49121094 151.30273437 78.49121094 151.30273437 77.67871094 154.24023438 C74.42457688 156.40965708 73.45444061 156.80087302 69.67871094 156.24023438 C67.47558594 154.48242188 67.47558594 154.48242188 65.42871094 152.11523438 C64.40003906 150.96667969 64.40003906 150.96667969 63.35058594 149.79492188 C61.35645166 146.74781016 60.75683328 144.88441181 60.67871094 141.24023438 C61.97167969 138.11914062 61.97167969 138.11914062 63.86621094 134.80273438 C67.33609735 128.46391561 69.19486735 122.35849206 70.75683594 115.32226562 C72.10321677 110.82101785 72.10321677 110.82101785 74.67871094 109.24023438 C77.30288583 108.70392759 79.71966542 108.32272095 82.36621094 108.05273438 C84.77933594 107.78460938 87.19246094 107.51648438 89.67871094 107.24023438 C89.67871094 102.29023438 89.67871094 97.34023438 89.67871094 92.24023438 C87.63683594 92.11648438 85.59496094 91.99273437 83.49121094 91.86523438 C75.39746094 91.37470407 75.39746094 91.37470407 71.67871094 89.24023438 C70.56152344 87.13085938 70.56152344 87.13085938 69.80371094 84.49023438 C68.24663517 79.66585206 66.34091695 75.24872589 64.05371094 70.74023438 C63.168125 68.99226563 63.168125 68.99226563 62.26464844 67.20898438 C60.7067299 64.17695324 60.7067299 64.17695324 58.67871094 61.24023438 C58.26855469 58.90039063 58.26855469 58.90039063 58.67871094 56.24023438 C60.86296894 53.2384763 63.30844282 50.60395327 65.80761719 47.86132812 C67.88259354 45.49136563 67.88259354 45.49136563 67.67871094 43.13476562 C66.45503337 40.81647023 65.01996083 39.29014336 63.11621094 37.49023438 C62.47554687 36.87664062 61.83488281 36.26304687 61.17480469 35.63085938 C60.68109375 35.17195313 60.18738281 34.71304688 59.67871094 34.24023438 C55.86734629 35.56418209 53.32507802 37.21472101 50.30371094 39.86523438 C47.47091165 42.08402791 45.90310765 43.18519367 42.36621094 44.05273438 C37.71381593 43.02763039 33.99991168 41.00370664 29.81933594 38.75585938 C25.97912552 36.9026235 22.22566941 35.97469515 18.05371094 35.17382812 C14.68339142 33.84898213 13.54428929 32.33577367 11.67871094 29.24023438 C10.95981951 26.48765549 10.67150191 23.7577666 10.42871094 20.92773438 C10.31269531 19.81688477 10.31269531 19.81688477 10.19433594 18.68359375 C10.00719353 16.8706517 9.84083389 15.05558484 9.67871094 13.24023438 C4.72871094 12.91023438 -0.22128906 12.58023437 -5.32128906 12.24023438 C-5.42441406 14.40585937 -5.52753906 16.57148438 -5.63378906 18.80273438 C-5.89262092 24.23820345 -6.42195784 28.56061205 -9.32128906 33.24023438 C-12.09769577 34.83723633 -14.98500995 35.62143155 -18.07128906 36.42773438 C-19.65155216 36.87202146 -21.22973613 37.32377563 -22.80566406 37.78320312 C-23.57330078 38.00669434 -24.3409375 38.23018555 -25.13183594 38.46044922 C-27.30018053 39.23271646 -29.02466266 40.18494106 -30.96191406 41.41601562 C-34.89473472 43.5516287 -36.91168371 43.91634072 -41.32128906 43.24023438 C-43.73340898 41.80492335 -45.64166555 40.50937398 -47.75878906 38.74023438 C-48.29955078 38.31097656 -48.8403125 37.88171875 -49.39746094 37.43945312 C-50.71751819 36.38808009 -52.02118469 35.31618282 -53.32128906 34.24023438 C-56.17243461 35.54468005 -58.36876652 36.94575869 -60.63378906 39.11523438 C-61.16617188 39.60765625 -61.69855469 40.10007812 -62.24707031 40.60742188 C-63.50771793 42.17872572 -63.50771793 42.17872572 -63.24707031 44.13476562 C-62.01976509 46.92597877 -60.2377051 48.79437342 -58.19628906 51.05273438 C-54.37232325 55.76391527 -54.37232325 55.76391527 -53.94628906 59.74023438 C-55.46325595 63.60160463 -57.46128724 66.79003922 -59.69628906 70.27148438 C-61.9643694 74.41509268 -63.3158635 78.72706252 -64.671875 83.23828125 C-66.13876756 88.05771287 -66.13876756 88.05771287 -68.32128906 90.24023438 C-70.45800781 90.87304688 -70.45800781 90.87304688 -73.00878906 91.36523438 C-73.83765625 91.5328125 -74.66652344 91.70039063 -75.52050781 91.87304688 C-78.32128906 92.24023438 -78.32128906 92.24023438 -85.32128906 92.24023438 C-84.99128906 97.19023437 -84.66128906 102.14023437 -84.32128906 107.24023438 C-81.75347656 107.42585938 -81.75347656 107.42585938 -79.13378906 107.61523438 C-75.17133382 107.90167692 -71.85054617 108.33986516 -68.32128906 110.24023438 C-67.31738281 111.98242188 -67.31738281 111.98242188 -66.75878906 114.11523438 C-66.52804687 114.91832031 -66.29730469 115.72140625 -66.05957031 116.54882812 C-65.8159375 117.43699219 -65.57230469 118.32515625 -65.32128906 119.24023438 C-63.4581768 125.30145112 -61.54070362 131.0301286 -58.50878906 136.61523438 C-57.01828484 139.5221805 -56.3319434 141.06266215 -56.13378906 144.36523438 C-57.84936201 148.51872677 -60.4651016 151.79883419 -63.32128906 155.24023438 C-61.91284189 158.45547743 -60.21784121 160.56207305 -57.69628906 162.99023438 C-56.74882812 163.910625 -56.74882812 163.910625 -55.78222656 164.84960938 C-55.30011719 165.30851563 -54.81800781 165.76742187 -54.32128906 166.24023438 C-53.825 165.81871094 -53.32871094 165.3971875 -52.81738281 164.96289062 C-52.13804687 164.41503906 -51.45871094 163.8671875 -50.75878906 163.30273438 C-50.0975 162.75746094 -49.43621094 162.2121875 -48.75488281 161.65039062 C-45.48896507 159.7579407 -43.09593816 159.32565208 -39.32128906 159.24023438 C-36.13769531 160.71679687 -36.13769531 160.71679687 -32.88378906 162.86523438 C-27.00235271 166.56848057 -21.26997776 168.8180942 -14.5637207 170.60400391 C-8.10218359 172.37030363 -8.10218359 172.37030363 -6.32128906 175.24023438 C-5.62015666 179.23829469 -5.53976401 183.17660038 -5.32128906 187.24023438 C-0.37128906 187.24023438 4.57871094 187.24023438 9.67871094 187.24023438 C9.77152344 184.67242187 9.77152344 184.67242187 9.86621094 182.05273438 C10.00467583 178.22187248 10.39889941 176.60577763 12.75683594 173.52539062 C16.09509634 170.91458537 19.21058793 169.87590093 23.24121094 168.86523438 C28.79811563 167.33576433 33.32865707 165.49140502 38.24121094 162.36523438 C41.80688493 160.155385 43.29490247 159.26499621 47.55371094 158.99023438 C50.34076089 160.10505436 51.68319933 160.94765098 53.86621094 162.86523438 C56.31810838 165.50081687 56.31810838 165.50081687 58.64355469 165.08398438 C60.9966059 164.10843915 62.26734154 162.91837719 64.05371094 161.11523438 C67.25325222 158.23220685 67.25325222 158.23220685 70.99121094 158.30273438 C73.67871094 159.24023438 73.67871094 159.24023438 75.67871094 160.24023438 C76.21660365 163.92864158 76.42231632 166.08720341 74.36621094 169.27539062 C72.55682173 171.37153571 70.66544307 173.31182119 68.67871094 175.24023438 C67.79892578 176.16835938 67.79892578 176.16835938 66.90136719 177.11523438 C63.9051896 180.05026548 62.46234264 181.18426068 58.17871094 181.49023438 C54.28257074 180.09875573 52.25470656 178.38653218 49.45214844 175.41992188 C47.72679055 174.02061404 47.72679055 174.02061404 45.47167969 174.33789062 C40.97357405 175.79112475 36.75356491 177.80712099 32.47363281 179.80078125 C31.78720703 180.11208984 31.10078125 180.42339844 30.39355469 180.74414062 C29.77601318 181.0310376 29.15847168 181.31793457 28.5222168 181.61352539 C26.67871094 182.24023438 26.67871094 182.24023438 22.67871094 182.24023438 C22.62972656 183.06007813 22.58074219 183.87992188 22.53027344 184.72460938 C22.418125 186.34109375 22.418125 186.34109375 22.30371094 187.99023438 C22.19929688 189.59125 22.19929688 189.59125 22.09277344 191.22460938 C21.70237965 194.06785468 21.23020363 195.85160534 19.67871094 198.24023438 C15.28578202 200.43669883 9.33289645 199.4260837 4.44799805 199.42553711 C2.25322042 199.42772242 0.0589464 199.44587943 -2.13574219 199.46484375 C-3.52962068 199.46777802 -4.92350155 199.46976259 -6.31738281 199.47070312 C-7.58767334 199.47481201 -8.85796387 199.4789209 -10.16674805 199.4831543 C-13.32128906 199.24023438 -13.32128906 199.24023438 -16.32128906 197.24023438 C-17.05175781 194.77929688 -17.05175781 194.77929688 -17.50878906 191.86523438 C-17.66734375 190.90875 -17.82589844 189.95226562 -17.98925781 188.96679688 C-18.32128906 186.24023438 -18.32128906 186.24023438 -18.32128906 182.24023438 C-20.23941406 181.89992188 -20.23941406 181.89992188 -22.19628906 181.55273438 C-26.86525964 180.52909571 -30.76434347 178.70866273 -34.96191406 176.45898438 C-35.74050781 176.05679688 -36.51910156 175.65460938 -37.32128906 175.24023438 C-38.55492187 174.56154297 -38.55492187 174.56154297 -39.81347656 173.86914062 C-42.39701734 172.91535612 -42.39701734 172.91535612 -44.75097656 174.61132812 C-46.37686288 175.98527998 -48.00186828 177.36027497 -49.62597656 178.73632812 C-52.32128906 180.24023438 -52.32128906 180.24023438 -55.55566406 180.50195312 C-61.23517185 178.59896452 -64.57984331 174.85177093 -68.69628906 170.61523438 C-69.92412109 169.42220703 -69.92412109 169.42220703 -71.17675781 168.20507812 C-74.62855974 164.71892991 -77.00673491 162.15911377 -78.61035156 157.47460938 C-78.2481891 153.42230509 -77.10092424 152.03572945 -74.32128906 149.11523438 C-71.99000488 146.77241397 -71.99000488 146.77241397 -70.32128906 144.24023438 C-70.51061197 139.31783867 -73.1731358 134.80850588 -75.16503906 130.37304688 C-76.41542685 126.98517186 -76.92641756 123.82100099 -77.32128906 120.24023438 C-78.44148438 120.13066406 -79.56167969 120.02109375 -80.71582031 119.90820312 C-82.18855128 119.74873544 -83.66120371 119.5885412 -85.13378906 119.42773438 C-85.87177734 119.35748047 -86.60976562 119.28722656 -87.37011719 119.21484375 C-92.76362045 118.60471895 -92.76362045 118.60471895 -95.01977539 117.13012695 C-96.99714159 114.25884731 -96.81472607 111.72592876 -96.93847656 108.27148438 C-96.9760759 107.25640808 -96.9760759 107.25640808 -97.01443481 106.2208252 C-97.06334129 104.7921382 -97.10490998 103.36318371 -97.13964844 101.93408203 C-97.1961143 99.74700357 -97.28446856 97.5628137 -97.37597656 95.37695312 C-97.41956877 93.98768929 -97.46129827 92.5983655 -97.50097656 91.20898438 C-97.5394873 89.94505859 -97.57799805 88.68113281 -97.61767578 87.37890625 C-97.32128906 84.24023438 -97.32128906 84.24023438 -95.99511719 82.3503418 C-93.4395116 80.65542659 -90.96352108 80.45664301 -87.94628906 80.05273438 C-86.82480469 79.89417969 -85.70332031 79.735625 -84.54785156 79.57226562 C-81.77098896 79.286511 -79.10864581 79.17237738 -76.32128906 79.24023438 C-76.09441406 77.96148437 -75.86753906 76.68273437 -75.63378906 75.36523438 C-74.60980607 70.56389192 -72.62029041 66.71737678 -70.14941406 62.50195312 C-69.07924152 60.29219506 -69.07924152 60.29219506 -69.95800781 58.22460938 C-72.04845952 55.18177423 -74.39564863 52.38627023 -76.76269531 49.55664062 C-78.51489549 46.9524935 -79.20003266 45.37835 -79.32128906 42.24023438 C-76.37321939 36.60080083 -71.98983219 32.42797082 -67.57128906 27.92773438 C-66.39179688 26.67379883 -66.39179688 26.67379883 -65.18847656 25.39453125 C-59.3863899 19.4912454 -59.3863899 19.4912454 -54.64160156 18.37304688 C-50.48430766 19.45883422 -48.0183161 21.58282949 -44.94628906 24.42773438 C-40.89440308 27.99579857 -40.89440308 27.99579857 -35.83300781 29.37695312 C-33.46713407 28.55751195 -31.48501823 27.49794974 -29.32128906 26.24023438 C-27.47591651 25.48908977 -25.62151962 24.75973715 -23.75878906 24.05273438 C-22.27855833 23.45117942 -20.79899127 22.84797411 -19.32128906 22.24023438 C-19.21171875 21.14324219 -19.10214844 20.04625 -18.98925781 18.91601562 C-18.8297324 17.46151921 -18.66954093 16.00709575 -18.50878906 14.55273438 C-18.4034082 13.47088867 -18.4034082 13.47088867 -18.29589844 12.3671875 C-17.79645398 7.99205402 -17.05657529 4.84364671 -14.32128906 1.24023438 C-10.11218267 -0.86431882 -4.63014987 0.01334978 0 0 Z " fill="#010101" transform="translate(331.3212890625,302.759765625)"/>
<path d="M0 0 C2.47923801 -0.02685095 4.9581884 -0.04676547 7.4375 -0.0625 C8.14455078 -0.07087891 8.85160156 -0.07925781 9.58007812 -0.08789062 C11.38693559 -0.09653588 13.19387603 -0.05220011 15 0 C17.24062266 2.24062266 16.78691927 7.8410214 17.07421875 11.00976562 C17.64541452 16.68533761 17.64541452 16.68533761 21 21 C23.61084315 21.98913 26.06683678 22.79003893 28.75 23.5 C33.02842204 24.65740895 36.81412203 25.76747493 40.578125 28.15625 C44.54644571 30.29443193 46.55986287 30.68078766 51 30 C53.41211992 28.56468897 55.32037648 27.2691396 57.4375 25.5 C57.97826172 25.07074219 58.51902344 24.64148438 59.07617188 24.19921875 C60.39622913 23.14784571 61.69989563 22.07594844 63 21 C66.10442031 22.3904499 68.3656443 24.01571598 70.8125 26.375 C71.75029297 27.25285156 71.75029297 27.25285156 72.70703125 28.1484375 C74 30 74 30 73.95703125 31.92578125 C72.6889724 34.67410472 70.90195978 36.5701316 68.875 38.8125 C65.66861171 42.67958164 65.66861171 42.67958164 64.625 47.5 C66.19772693 51.5033049 68.21794496 54.95782897 70.5078125 58.58984375 C74.11254633 64.41214944 75.72038872 70.36107559 77 77 C78.04800781 77.13277344 79.09601563 77.26554687 80.17578125 77.40234375 C81.55470778 77.58057235 82.93361293 77.75896641 84.3125 77.9375 C85.00279297 78.02451172 85.69308594 78.11152344 86.40429688 78.20117188 C89.40142288 78.59210135 92.12450119 79.0415004 95 80 C95 84.95 95 89.9 95 95 C87.6875 96.1875 87.6875 96.1875 85.3972168 96.52416992 C82.04597703 97.13320064 80.30613609 97.63414537 78.09765625 100.2734375 C76.99561652 103.0108885 76.31205789 105.54290187 75.75 108.4375 C74.02802272 115.91181218 70.61786559 122.29951468 67 129 C57.30324949 128.67033322 48.26651386 128.18223694 39 125 C40.06681496 122.15358662 40.94538421 120.06735947 42.875 117.6875 C50.43394096 108.1276629 52.82896191 96.98084567 52 85 C50.14286932 71.94897155 43.41510143 61.79681269 33.2734375 53.60546875 C24.14014158 47.17329652 11.99184263 44.6135127 1 46 C-11.65777267 48.54359522 -20.32260663 54.35500281 -28.40625 64.27734375 C-28.9321875 64.84582031 -29.458125 65.41429687 -30 66 C-30.66 66 -31.32 66 -32 66 C-37.03481682 55.90134725 -40.94630704 45.8645853 -44 35 C-44.31130859 33.89978516 -44.31130859 33.89978516 -44.62890625 32.77734375 C-45.23674947 29.86609465 -45.05693309 26.96052078 -45 24 C-42.53416108 25.43840604 -40.25212847 26.77308438 -38.125 28.6875 C-34.98598806 30.62630149 -32.51165683 30.79234134 -29 30 C-26.0181774 28.64899826 -23.16108006 27.1343968 -20.28125 25.578125 C-15.87605011 23.45943363 -11.36799895 22.34371199 -6.6171875 21.25 C-3.7659705 20.22180351 -3.7659705 20.22180351 -2.703125 17.3359375 C-1.95183299 13.7714743 -1.35202694 10.2367754 -0.875 6.625 C-0.70742188 5.37976563 -0.53984375 4.13453125 -0.3671875 2.8515625 C-0.18542969 1.44003906 -0.18542969 1.44003906 0 0 Z " fill="#ABCC86" transform="translate(326,315)"/>
<path d="M0 0 C1.26572269 2.53144537 0.70982265 4.08747077 0.27539062 6.80126953 C-3.12676815 33.96424994 3.4265941 60.27939965 20.1875 81.9375 C21.78336991 83.96505933 23.39181438 85.98215609 25 88 C26.00592527 89.32886874 27.00880363 90.66010914 28 92 C14.06192939 92.5798581 1.72144147 90.63199695 -11.09765625 84.890625 C-14.51827354 83.84096048 -16.57475576 84.04773352 -20 85 C-22.70868546 87.70868546 -23.27356997 90.79032007 -24.3125 94.375 C-27.81612068 105.84418278 -32.00414802 115.33943939 -38.96875 125.12646484 C-43.86187344 132.06006087 -48.29859302 139.3493139 -49 148 C-60.43458113 134.19028332 -64.36599787 112.92790764 -64.3125 95.5625 C-64.33666992 93.99918945 -64.33666992 93.99918945 -64.36132812 92.40429688 C-64.36711683 83.06711139 -62.59764389 74.61579575 -59 66 C-55.11669879 67.73122541 -51.79683306 70.20095871 -48.375 72.6875 C-47.44892944 73.35036011 -47.44892944 73.35036011 -46.50415039 74.02661133 C-43.6533648 76.06795566 -40.82852301 78.13013274 -38.03515625 80.25 C-36.74931641 81.2090625 -36.74931641 81.2090625 -35.4375 82.1875 C-34.69371094 82.75855469 -33.94992188 83.32960938 -33.18359375 83.91796875 C-30.37214596 85.31111909 -28.93575129 84.94847349 -26 84 C-24.69718742 82.90165334 -24.69718742 82.90165334 -24.6484375 80.203125 C-24.70083837 76.92191712 -24.70083837 76.92191712 -26.9140625 74.796875 C-27.80867188 74.12140625 -28.70328125 73.4459375 -29.625 72.75 C-31.11 71.61304688 -31.11 71.61304688 -32.625 70.453125 C-33.74751146 69.63200385 -34.87265631 68.81447415 -36 68 C-36.93005859 67.32420898 -36.93005859 67.32420898 -37.87890625 66.63476562 C-40.97887413 64.38963738 -44.09317001 62.16697247 -47.2265625 59.96875 C-50 58 -50 58 -51 57 C-51.96365095 41.6001166 -49.59176024 29.75703946 -39.0703125 17.80859375 C-28.05251631 7.18577516 -14.68733481 2.73252741 0 0 Z " fill="#4D6474" transform="translate(117,131)"/>
<path d="M0 0 C1.2375 -0.020625 2.475 -0.04125 3.75 -0.0625 C4.44609375 -0.07410156 5.1421875 -0.08570313 5.859375 -0.09765625 C8 0 8 0 12 1 C12.495 12.88 12.495 12.88 13 25 C18.17505503 25.61724993 18.17505503 25.61724993 23.35107422 26.22631836 C28.77777778 26.88888889 28.77777778 26.88888889 31 28 C31.74609375 29.71826172 31.74609375 29.71826172 32.4375 31.9296875 C32.82035156 33.12271484 32.82035156 33.12271484 33.2109375 34.33984375 C33.60152344 35.59474609 33.60152344 35.59474609 34 36.875 C34.51664009 38.51955236 35.03732159 40.16284186 35.5625 41.8046875 C35.90474609 42.90272705 35.90474609 42.90272705 36.25390625 44.02294922 C37.01680977 46.26918259 37.01680977 46.26918259 39 49 C38.71429953 52.69155078 36.77184455 54.62440542 34.375 57.3125 C31.32378338 61.06383048 31.32378338 61.06383048 31 65.9375 C31.87555372 68.87401734 31.87555372 68.87401734 33 71 C26.79277108 71.09959145 20.58601712 71.17180805 14.37817383 71.21972656 C12.27066943 71.23972278 10.16321966 71.26692893 8.0559082 71.30175781 C-6.17254156 71.53086854 -18.47772175 71.72591162 -29.98828125 62.19921875 C-35.74365688 55.90741976 -39.54812789 46.86023302 -39.484375 38.26953125 C-38.6536506 34.37718549 -36.17750037 31.62904594 -33.81640625 28.5 C-28.80408586 21.60132248 -27.23914206 14.31142732 -26 6 C-25.34926514 5.98541748 -24.69853027 5.97083496 -24.02807617 5.95581055 C-21.08061694 5.88135451 -18.13429358 5.78468734 -15.1875 5.6875 C-14.16333984 5.66494141 -13.13917969 5.64238281 -12.08398438 5.61914062 C-11.10107422 5.58369141 -10.11816406 5.54824219 -9.10546875 5.51171875 C-8.19949951 5.48553467 -7.29353027 5.45935059 -6.36010742 5.43237305 C-3.58401416 4.92379115 -2.71372157 4.19556906 -1 2 C-0.67 1.34 -0.34 0.68 0 0 Z " fill="#E9757A" transform="translate(223,395)"/>
<path d="M0 0 C10.60511086 -0.06778761 21.21007773 -0.12282298 31.81535625 -0.15543652 C36.73986043 -0.17108968 41.66420863 -0.19232168 46.58862305 -0.22631836 C51.34132736 -0.25892412 56.09388169 -0.27685564 60.84668922 -0.28463173 C62.65957818 -0.29017304 64.47245897 -0.30099388 66.28528404 -0.31719017 C68.82537932 -0.3389807 71.36485553 -0.34196626 73.9050293 -0.34057617 C74.65381348 -0.351362 75.40259766 -0.36214783 76.17407227 -0.3732605 C80.62236765 -0.34693466 83.46724229 0.24514674 87 3 C87.495 3.99 87.495 3.99 88 5 C87.03810161 7.54211907 86.00879851 9.97033729 84.87890625 12.4375 C84.54132797 13.1910376 84.20374969 13.9445752 83.85594177 14.72094727 C82.76546617 17.15067772 81.6642375 19.57535837 80.5625 22 C79.85409007 23.57258909 79.14640005 25.14550269 78.43945312 26.71875 C77.02131318 29.87302045 75.59820977 33.02498793 74.17236328 36.17578125 C72.67099905 39.49986001 71.18668524 42.83092889 69.71435547 46.16796875 C69.16363625 47.41525757 69.16363625 47.41525757 68.60179138 48.68774414 C67.89821577 50.2837212 67.19653294 51.88053433 66.4969635 53.47827148 C64.10989081 58.89010919 64.10989081 58.89010919 63 60 C60.40640678 60.08851529 57.83960309 60.11525945 55.24609375 60.09765625 C54.47064713 60.0962413 53.6952005 60.09482635 52.89625549 60.09336853 C50.40996506 60.08775345 47.9237634 60.07519846 45.4375 60.0625 C43.75586067 60.05748694 42.07421994 60.0529237 40.39257812 60.04882812 C36.26168434 60.03777913 32.13085724 60.02050445 28 60 C29.26651787 56.16705606 30.61017452 52.39110638 32.0625 48.625 C33.75836371 44.01653766 34.63122316 39.88629314 35 35 C35.61488281 34.95101562 36.22976563 34.90203125 36.86328125 34.8515625 C37.67152344 34.77679688 38.47976563 34.70203125 39.3125 34.625 C40.51326172 34.52058594 40.51326172 34.52058594 41.73828125 34.4140625 C44.27224441 34.10435574 44.27224441 34.10435574 47 32 C47.5 29 47.5 29 47 26 C43.51321064 23.67547376 41.93032429 23.70226266 37.80078125 23.5859375 C36.59228516 23.54726562 35.38378906 23.50859375 34.13867188 23.46875 C32.87603516 23.4378125 31.61339844 23.406875 30.3125 23.375 C29.03826172 23.33632812 27.76402344 23.29765625 26.45117188 23.2578125 C23.30092708 23.16342314 20.15069009 23.0778417 17 23 C16.95101563 22.08476563 16.90203125 21.16953125 16.8515625 20.2265625 C16.77679688 19.03804687 16.70203125 17.84953125 16.625 16.625 C16.55539062 15.44164062 16.48578125 14.25828125 16.4140625 13.0390625 C16.29782654 9.89437681 16.29782654 9.89437681 14 8 C11 7.58333333 11 7.58333333 8 8 C5.73045369 11.40431947 5.63450051 13.16524202 5.375 17.1875 C5.30023438 18.27417969 5.22546875 19.36085938 5.1484375 20.48046875 C5.09945313 21.31191406 5.05046875 22.14335938 5 23 C3.35 23 1.7 23 0 23 C0 15.41 0 7.82 0 0 Z " fill="#A2CAEE" transform="translate(306,45)"/>
<path d="M0 0 C2.26920431 1.68132754 4.25936988 3.43544647 6.26171875 5.42578125 C6.968125 6.11800781 7.67453125 6.81023437 8.40234375 7.5234375 C17.77046579 17.35996565 21.74905443 28.32300895 21.44921875 41.796875 C20.60945814 53.57101859 14.82798167 64.45716458 6.26171875 72.42578125 C5.7821875 72.91046875 5.30265625 73.39515625 4.80859375 73.89453125 C-4.28057229 82.54247564 -16.13938302 84.82770617 -28.29296875 84.703125 C-37.7063122 83.94536153 -45.30850837 80.02503037 -52.73828125 74.42578125 C-53.60453125 73.84828125 -54.47078125 73.27078125 -55.36328125 72.67578125 C-64.80784025 63.7283043 -69.54899643 52.13155874 -69.98828125 39.30078125 C-69.79079296 26.05111237 -64.93469973 15.72401008 -55.92578125 6.11328125 C-40.24813566 -8.59958615 -18.5422716 -10.65982233 0 0 Z M-47.78515625 15.28125 C-55.11867127 23.13187185 -58.07552404 31.6902191 -57.73828125 42.42578125 C-56.29576076 51.91312758 -51.13350577 60.1822262 -43.6640625 66.14453125 C-36.02476809 71.22706384 -27.5220358 73.75328214 -18.3828125 71.96484375 C-8.1176073 69.25928579 0.05139068 63.53745719 5.48046875 54.3671875 C9.32766037 46.65906428 10.36644888 38.03534512 8.109375 29.6796875 C4.47396849 20.01319184 -1.80052581 12.67590897 -11.05078125 8.05078125 C-24.30574774 2.75792028 -37.35856743 5.82966662 -47.78515625 15.28125 Z " fill="#020201" transform="translate(357.73828125,366.57421875)"/>
<path d="M0 0 C3 0.4375 3 0.4375 4.67578125 1.546875 C6.6570087 4.37553012 6.28855109 6.7229465 6.1875 10.125 C6.14689453 11.89423828 6.14689453 11.89423828 6.10546875 13.69921875 C6.07066406 14.60285156 6.03585937 15.50648437 6 16.4375 C6.79696289 16.42178955 7.59392578 16.4060791 8.41503906 16.38989258 C12.0266205 16.32752411 15.63808861 16.28850261 19.25 16.25 C20.50425781 16.22486328 21.75851562 16.19972656 23.05078125 16.17382812 C24.25605469 16.16416016 25.46132813 16.15449219 26.703125 16.14453125 C28.36843262 16.12096558 28.36843262 16.12096558 30.06738281 16.09692383 C33.34192884 16.47720952 34.70613808 17.09952535 37 19.4375 C37.5 22.4375 37.5 22.4375 37 25.4375 C35.5625 27.3125 35.5625 27.3125 33 28.4375 C29.9820363 28.67124934 27.01989876 28.61172493 24 28.4375 C24.1546875 30.0153125 24.1546875 30.0153125 24.3125 31.625 C24.296423 40.69242635 19.5446455 49.36953086 14.33203125 56.53515625 C13.00283822 58.43344659 11.98427169 60.34300715 11 62.4375 C15.11421615 63.80890538 19.24772818 63.75243942 23.55078125 63.8671875 C26.44753883 64.00431212 28.52730466 64.10908115 30.9453125 65.7890625 C32.61396148 68.39709905 32.37616903 70.42814776 32 73.4375 C30.84375 75.09765625 30.84375 75.09765625 29 76.4375 C19.71971258 77.93912085 9.02636972 76.05332183 0.9296875 71.1953125 C-1.03962085 70.20330107 -1.03962085 70.20330107 -3.33203125 71.046875 C-4.15058594 71.42328125 -4.96914063 71.7996875 -5.8125 72.1875 C-7.13507813 72.75984375 -7.13507813 72.75984375 -8.484375 73.34375 C-9.31453125 73.7046875 -10.1446875 74.065625 -11 74.4375 C-16.31509992 76.30244734 -21.39365108 77.3016771 -27 76.4375 C-29.625 74.8125 -29.625 74.8125 -31 72.4375 C-30.9375 69.3125 -30.9375 69.3125 -30 66.4375 C-26.74640331 64.26843554 -24.88157024 63.96622171 -21.0625 63.4375 C-17.2961946 62.91479095 -14.30727537 62.35014118 -11 60.4375 C-11.33773438 59.78523438 -11.67546875 59.13296875 -12.0234375 58.4609375 C-18.75843882 45.26344937 -18.75843882 45.26344937 -18 38.4375 C-16.875 36.5625 -16.875 36.5625 -15 35.4375 C-9.86016203 34.79502025 -9.86016203 34.79502025 -7.41015625 36.625 C-5.61078639 38.93776347 -5.11897525 40.96977466 -4.4375 43.8125 C-3.53768855 47.50325206 -2.48300181 50.93685194 -1 54.4375 C2.92402711 51.62605783 5.05958459 49.13678922 7.1875 44.8125 C7.67605469 43.85085937 8.16460937 42.88921875 8.66796875 41.8984375 C9.81091941 38.92877684 10.48837542 36.32532211 11.08325195 33.22119141 C11.25685745 32.32429596 11.43046295 31.42740051 11.60932922 30.50332642 C11.73825058 29.8216037 11.86717194 29.13988098 12 28.4375 C11.16767853 28.45082367 11.16767853 28.45082367 10.31854248 28.4644165 C4.54368389 28.55290593 -1.23098216 28.61324053 -7.00634766 28.65722656 C-9.16170067 28.67734276 -11.31699911 28.70463925 -13.47216797 28.73925781 C-16.57012395 28.78777486 -19.66735846 28.81046873 -22.765625 28.828125 C-23.72929993 28.84877014 -24.69297485 28.86941528 -25.68585205 28.89068604 C-32.34179458 28.89291882 -32.34179458 28.89291882 -35.64355469 26.60839844 C-37 24.4375 -37 24.4375 -36.9375 21.3125 C-36 18.4375 -36 18.4375 -33 16.4375 C-30.1809082 16.21044922 -30.1809082 16.21044922 -26.80078125 16.2421875 C-25.59228516 16.24863281 -24.38378906 16.25507812 -23.13867188 16.26171875 C-21.2447168 16.28685547 -21.2447168 16.28685547 -19.3125 16.3125 C-18.03826172 16.32152344 -16.76402344 16.33054687 -15.45117188 16.33984375 C-12.30059373 16.36344359 -9.15039017 16.39636806 -6 16.4375 C-6.05220703 15.20773438 -6.05220703 15.20773438 -6.10546875 13.953125 C-6.13253906 12.87546875 -6.15960938 11.7978125 -6.1875 10.6875 C-6.23970703 9.08648437 -6.23970703 9.08648437 -6.29296875 7.453125 C-5.84902819 2.88349682 -4.64224161 0.67699357 0 0 Z " fill="#030506" transform="translate(317,51.5625)"/>
<path d="M0 0 C3.125 0.4375 3.125 0.4375 5.10131836 2.49487305 C7.39142547 5.82490815 9.04126903 9.2606984 10.62890625 12.95703125 C10.94894119 13.68479767 11.26897614 14.41256409 11.59870911 15.16238403 C12.63497965 17.52206237 13.66114124 19.88599604 14.6875 22.25 C15.75818888 24.69364123 16.83164766 27.13605178 17.90545654 29.57832336 C18.62178197 31.20760479 19.33731839 32.83723333 20.05206299 34.46720886 C23.55735499 42.45197524 27.18583793 50.37709635 30.84985352 58.2902832 C31.25776123 59.17288818 31.66566895 60.05549316 32.0859375 60.96484375 C32.43446777 61.71499756 32.78299805 62.46515137 33.14208984 63.23803711 C36.58379332 70.93955392 36.58379332 70.93955392 35.125 75.4375 C33.125 77.4375 33.125 77.4375 30.1875 77.75 C26.71159938 77.39531626 26.26594363 77.02228435 24.125 74.4375 C23.1418457 72.62817383 23.1418457 72.62817383 22.30078125 70.64453125 C22.02403564 70.00233643 21.74729004 69.3601416 21.4621582 68.69848633 C21.124021 67.89048584 20.78588379 67.08248535 20.4375 66.25 C19.344375 63.671875 18.25125 61.09375 17.125 58.4375 C5.905 58.4375 -5.315 58.4375 -16.875 58.4375 C-19.05159139 63.56461806 -19.05159139 63.56461806 -21.2121582 68.69848633 C-21.48890381 69.34068115 -21.76564941 69.98287598 -22.05078125 70.64453125 C-22.32833252 71.2991333 -22.60588379 71.95373535 -22.8918457 72.62817383 C-23.99506523 74.65845937 -25.08877146 75.97276488 -26.875 77.4375 C-29.875 77.875 -29.875 77.875 -32.875 77.4375 C-34.8125 75.75 -34.8125 75.75 -35.875 73.4375 C-35.40821946 69.92587973 -34.36330188 66.93763018 -32.93359375 63.7109375 C-32.52238281 62.77805908 -32.11117188 61.84518066 -31.6875 60.8840332 C-31.23375 59.87042725 -30.78 58.85682129 -30.3125 57.8125 C-29.83941406 56.74668701 -29.36632812 55.68087402 -28.87890625 54.58276367 C-24.43596009 44.61221174 -19.90924973 34.67929086 -15.375 24.75 C-15.02452606 23.98234314 -14.67405212 23.21468628 -14.31295776 22.42376709 C-13.30385959 20.2154281 -12.29295654 18.00792633 -11.28125 15.80078125 C-10.98162857 15.14544907 -10.68200714 14.49011688 -10.37330627 13.81492615 C-4.33076554 0.65902954 -4.33076554 0.65902954 0 0 Z " fill="#050505" transform="translate(425.875,85.5625)"/>
<path d="M0 0 C10.57830186 1.8744347 10.57830186 1.8744347 15.125 3.125 C26.46140423 5.65093677 38.21266073 4.14430848 49.4140625 1.75390625 C52.94361995 1.01185332 56.42685585 0.47305122 60 0 C61.33370521 25.620819 61.33370521 25.620819 52.13671875 36.12890625 C45.71281471 42.29533918 39.06716149 45.1854128 30.1875 45.625 C20.94837207 45.3256762 13.36288956 41.92865052 7 35.1875 C0.65781697 27.70570595 -0.57783668 19.9636774 -0.25 10.4375 C-0.23195313 9.42880859 -0.21390625 8.42011719 -0.1953125 7.38085938 C-0.14865249 4.91954395 -0.0832157 2.46030429 0 0 Z " fill="#FDC24C" transform="translate(125,386)"/>
<path d="M0 0 C3.88345329 1.73129322 7.20261439 4.20156731 10.625 6.6875 C11.5543335 7.35036011 11.5543335 7.35036011 12.50244141 8.02661133 C15.33582802 10.04998788 18.12239492 12.09631076 20.859375 14.25 C26.14486534 18.43319447 26.14486534 18.43319447 32.625 18.9375 C33.73875 18.628125 34.8525 18.31875 36 18 C37.32295741 21.96887222 36.13361208 24.61985827 34.875 28.4375 C34.64055176 29.15615234 34.40610352 29.87480469 34.16455078 30.61523438 C33.45736999 32.74865016 32.73150945 34.87482122 32 37 C31.649375 38.04285156 31.29875 39.08570313 30.9375 40.16015625 C28.2867925 47.24495167 24.3836371 53.0102613 20.03125 59.12646484 C15.13812656 66.06006087 10.70140698 73.3493139 10 82 C-1.43458113 68.19028332 -5.36599787 46.92790764 -5.3125 29.5625 C-5.33666992 27.99918945 -5.33666992 27.99918945 -5.36132812 26.40429688 C-5.36711683 17.06711139 -3.59764389 8.61579575 0 0 Z " fill="#5C7386" transform="translate(58,197)"/>
<path d="M0 0 C1.8988925 2.33584195 3.76421954 4.65544616 5.46484375 7.140625 C12.03850733 16.55648265 22.48565666 23.72097276 33.59765625 26.6953125 C41.03706608 27.99219852 48.46307017 28.58189294 56 29 C53.62542382 35.95667292 48.26717453 40.06816688 41.875 43.4375 C34.71908551 46.25798953 26.96151731 46.27700676 19.6796875 43.9296875 C10.4536151 39.69818061 4.79554513 33.84040651 0.80273438 24.58374023 C-0.64891844 19.9113431 -0.4167724 15.28352117 -0.25 10.4375 C-0.23195313 9.42880859 -0.21390625 8.42011719 -0.1953125 7.38085938 C-0.14865249 4.91954395 -0.0832157 2.46030429 0 0 Z " fill="#FCA903" transform="translate(125,386)"/>
<path d="M0 0 C1.59792057 0.63090312 3.18041315 1.30158321 4.75 2 C10.83066804 4.54878301 16.28141803 5.29341982 22.60546875 3.09375 C24.29863886 2.37652212 25.98643929 1.64645364 27.66796875 0.90234375 C31.06487693 -0.41203781 33.40295995 -0.52456834 37 0 C39.1610211 3.24153166 39.64247553 4.23692901 39 8 C33.99088245 13.51002931 24.92290069 16.51329507 17.58984375 17.23828125 C7.94172982 17.50825793 -0.31861591 14.86210891 -8 9 C-8.33 8.67 -8.66 8.34 -9 8 C-8.6875 4.5 -8.6875 4.5 -8 1 C-5.07784517 -0.46107741 -3.288016 -0.29357286 0 0 Z " fill="#070500" transform="translate(140,332)"/>
<path d="M0 0 C7.59 0 15.18 0 23 0 C23 8.98278082 20.5966086 16.25790803 14.8125 23.25 C12 26 12 26 10 26 C7.01542713 21.32416917 5.44360499 17.50271974 4.58984375 12.015625 C4.16811873 9.91236999 4.16811873 9.91236999 2.50390625 8.671875 C1 7 1 7 0 0 Z " fill="#A1C9ED" transform="translate(306,80)"/>
<path d="M0 0 C0.66 0 1.32 0 2 0 C3.67585347 3.59996502 5.33908513 7.20562136 7 10.8125 C7.47695313 11.83666016 7.95390625 12.86082031 8.4453125 13.91601562 C8.89648438 14.89892578 9.34765625 15.88183594 9.8125 16.89453125 C10.23144531 17.80050049 10.65039062 18.70646973 11.08203125 19.63989258 C12 22 12 22 12 25 C4.74 25 -2.52 25 -10 25 C-6.625 14.875 -6.625 14.875 -5.17578125 11.62109375 C-4.86962891 10.92822266 -4.56347656 10.23535156 -4.24804688 9.52148438 C-3.93931641 8.83376953 -3.63058594 8.14605469 -3.3125 7.4375 C-2.99216797 6.71498047 -2.67183594 5.99246094 -2.34179688 5.24804688 C-1.56487057 3.49706371 -0.78297505 1.74828676 0 0 Z " fill="#E0E0E0" transform="translate(425,106)"/>
<path d="M0 0 C3.71317907 1.14770989 5.2692056 1.85342428 7.4375 5.0625 C8 8 8 8 7.4375 11.0625 C4.98155875 14.38524404 3.5118356 15.83868008 -0.5625 16.6875 C-4.6368356 15.83868008 -6.10655875 14.38524404 -8.5625 11.0625 C-9.1875 8.0625 -9.1875 8.0625 -8.5625 5.0625 C-5.88937913 1.25532785 -4.71546409 0.08272744 0 0 Z " fill="#090600" transform="translate(187.5625,275.9375)"/>
<path d="M0 0 C3.26600019 2.46764459 4.78253791 3.95618195 5.625 8 C4.77618008 12.0743356 3.32274404 13.54405875 0 16 C-3 16.625 -3 16.625 -6 16 C-8.9375 13.9375 -8.9375 13.9375 -11 11 C-11.1526226 6.6502558 -10.71471806 4.7742779 -7.75 1.5625 C-4.68825146 -0.17712985 -3.43375729 -0.77259539 0 0 Z " fill="#090600" transform="translate(126,276)"/>
<path d="M0 0 C0.05401695 2.91691525 0.09368066 5.83282724 0.125 8.75 C0.15013672 9.9875 0.15013672 9.9875 0.17578125 11.25 C0.18222656 12.04921875 0.18867188 12.8484375 0.1953125 13.671875 C0.20578613 14.4050293 0.21625977 15.13818359 0.22705078 15.89355469 C-0.03222456 18.29896076 -0.80774075 19.91251494 -2 22 C-2.25523437 20.96552734 -2.25523437 20.96552734 -2.515625 19.91015625 C-4.13709372 13.62265252 -6.15984239 7.83890271 -9 2 C-5.62902617 0.50178941 -3.79557881 0 0 0 Z " fill="#485D6C" transform="translate(243,249)"/>
<path d="M0 0 C3.56311466 1.78155733 5.35645475 3.16763009 8 6 C6.02 6.99 6.02 6.99 4 8 C2.68 5.36 1.36 2.72 0 0 Z " fill="#76ACDC" transform="translate(312,98)"/>
</svg>
