<?xml version="1.0" encoding="UTF-8"?>
<svg version="1.1" xmlns="http://www.w3.org/2000/svg" width="512" height="512">
<path d="M0 0 C1.72582588 -0.00461468 3.45164783 -0.01097139 5.17746162 -0.01890898 C9.89733791 -0.03554752 14.61688907 -0.02738091 19.33676624 -0.0149641 C24.43569409 -0.00589347 29.53456703 -0.01989332 34.63348389 -0.03088379 C44.61335561 -0.0486521 54.59310686 -0.04483653 64.57298326 -0.03323323 C72.68524188 -0.02419255 80.79746679 -0.02297766 88.909729 -0.02732849 C90.06516366 -0.02794142 91.22059832 -0.02855436 92.41104615 -0.02918586 C94.75843224 -0.03046479 97.10581832 -0.03176164 99.45320439 -0.03307623 C121.45459403 -0.04447708 143.45591696 -0.03137606 165.45729566 -0.00987476 C184.32752087 0.00799575 203.19764765 0.00489151 222.06787109 -0.0135498 C243.99158028 -0.03496523 265.91523102 -0.04337849 287.8389492 -0.03110075 C290.17760594 -0.02982658 292.51626268 -0.0285691 294.85491943 -0.02732849 C296.58082752 -0.02640284 296.58082752 -0.02640284 298.34160244 -0.02545848 C306.44228783 -0.02200761 314.54293609 -0.02782829 322.64361572 -0.0372467 C332.5182667 -0.0484755 342.39279052 -0.04540803 352.26742697 -0.02412373 C357.30375001 -0.01362526 362.33986118 -0.00947105 367.37618256 -0.02272034 C371.99018845 -0.03467487 376.60378689 -0.02803128 381.21775603 -0.00681013 C382.88315294 -0.00235703 384.54858455 -0.00458117 386.21395898 -0.01431328 C399.81152694 -0.08765401 410.70157321 1.78907019 420.88232422 11.50793457 C431.32150768 22.44323764 432.47459502 34.19386568 432.39025879 48.62561035 C432.39487347 50.35143623 432.40123018 52.07725818 432.40916777 53.80307198 C432.42580631 58.52294826 432.4176397 63.24249942 432.40522289 67.96237659 C432.39615226 73.06130445 432.41015211 78.16017738 432.42114258 83.25909424 C432.43891089 93.23896596 432.43509532 103.21871721 432.42349201 113.19859362 C432.41445134 121.31085224 432.41323645 129.42307714 432.41758728 137.53533936 C432.41820021 138.69077401 432.41881314 139.84620867 432.41944465 141.0366565 C432.42072358 143.38404259 432.42202043 145.73142867 432.42333502 148.07881474 C432.43473587 170.08020438 432.42163485 192.08152731 432.40013355 214.08290601 C432.38226304 232.95313122 432.38536728 251.82325801 432.40380859 270.69348145 C432.42522402 292.61719063 432.43363728 314.54084137 432.42135954 336.46455956 C432.42008537 338.80321629 432.41882789 341.14187303 432.41758728 343.48052979 C432.41666163 345.20643788 432.41666163 345.20643788 432.41571727 346.9672128 C432.4122664 355.06789818 432.41808708 363.16854644 432.42750549 371.26922607 C432.43873429 381.14387705 432.43566681 391.01840087 432.41438252 400.89303732 C432.40388405 405.92936036 432.39972984 410.96547153 432.41297913 416.00179291 C432.42493366 420.6157988 432.41829007 425.22939724 432.39706892 429.84336638 C432.39261582 431.50876329 432.39483995 433.17419491 432.40457207 434.83956933 C432.4779128 448.43713729 430.6011886 459.32718356 420.88232422 469.50793457 C409.94702115 479.94711803 398.19639311 481.10020537 383.76464844 481.01586914 C382.03882256 481.02048382 380.31300061 481.02684054 378.58718681 481.03477812 C373.86731053 481.05141666 369.14775937 481.04325005 364.42788219 481.03083324 C359.32895434 481.02176261 354.2300814 481.03576246 349.13116455 481.04675293 C339.15129283 481.06452124 329.17154158 481.06070567 319.19166517 481.04910237 C311.07940655 481.04006169 302.96718165 481.0388468 294.85491943 481.04319763 C293.69948478 481.04381056 292.54405012 481.0444235 291.35360229 481.045055 C289.0062162 481.04633393 286.65883012 481.04763078 284.31144404 481.04894537 C262.31005441 481.06034622 240.30873148 481.0472452 218.30735278 481.0257439 C199.43712757 481.00787339 180.56700078 481.01097763 161.69677734 481.02941895 C139.77306816 481.05083437 117.84941742 481.05924763 95.92569923 481.04696989 C93.5870425 481.04569572 91.24838576 481.04443824 88.909729 481.04319763 C87.18382091 481.04227198 87.18382091 481.04227198 85.42304599 481.04132763 C77.32236061 481.03787675 69.22171235 481.04369743 61.12103271 481.05311584 C51.24638174 481.06434464 41.37185792 481.06127717 31.49722147 481.03999287 C26.46089843 481.0294944 21.42478726 481.02534019 16.38846588 481.03858948 C11.77445999 481.05054401 7.16086155 481.04390042 2.5468924 481.02267927 C0.8814955 481.01822617 -0.78393612 481.02045031 -2.44931054 481.03018242 C-16.0468785 481.10352315 -26.93692478 479.22679895 -37.11767578 469.50793457 C-47.55685924 458.5726315 -48.70994658 446.82200346 -48.62561035 432.39025879 C-48.63022503 430.66443291 -48.63658175 428.93861096 -48.64451933 427.21279716 C-48.66115787 422.49292088 -48.65299126 417.77336972 -48.64057446 413.05349255 C-48.63150382 407.95456469 -48.64550367 402.85569176 -48.65649414 397.7567749 C-48.67426245 387.77690318 -48.67044688 377.79715193 -48.65884358 367.81727552 C-48.6498029 359.7050169 -48.64858801 351.592792 -48.65293884 343.48052979 C-48.65355177 342.32509513 -48.65416471 341.16966047 -48.65479621 339.97921264 C-48.65607514 337.63182655 -48.65737199 335.28444047 -48.65868658 332.9370544 C-48.67008743 310.93566476 -48.65698641 288.93434183 -48.63548511 266.93296313 C-48.6176146 248.06273792 -48.62071884 229.19261114 -48.63916016 210.3223877 C-48.66057558 188.39867851 -48.66898884 166.47502777 -48.6567111 144.55130959 C-48.65543693 142.21265285 -48.65417945 139.87399611 -48.65293884 137.53533936 C-48.65232174 136.38473396 -48.65170464 135.23412857 -48.65106884 134.04865634 C-48.64761796 125.94797096 -48.65343864 117.8473227 -48.66285706 109.74664307 C-48.67408586 99.87199209 -48.67101838 89.99746827 -48.64973408 80.12283182 C-48.63923561 75.08650878 -48.6350814 70.05039761 -48.64833069 65.01407623 C-48.66028522 60.40007034 -48.65364163 55.7864719 -48.63242048 51.17250276 C-48.62796738 49.50710585 -48.63019152 47.84167423 -48.63992363 46.17629981 C-48.71326436 32.57873185 -46.83654016 21.68868558 -37.11767578 11.50793457 C-26.18237271 1.06875111 -14.43174467 -0.08433623 0 0 Z " fill="#42474C" transform="translate(64.11767578125,15.4920654296875)"/>
<path d="M0 0 C1.72582588 -0.00461468 3.45164783 -0.01097139 5.17746162 -0.01890898 C9.89733791 -0.03554752 14.61688907 -0.02738091 19.33676624 -0.0149641 C24.43569409 -0.00589347 29.53456703 -0.01989332 34.63348389 -0.03088379 C44.61335561 -0.0486521 54.59310686 -0.04483653 64.57298326 -0.03323323 C72.68524188 -0.02419255 80.79746679 -0.02297766 88.909729 -0.02732849 C90.06516366 -0.02794142 91.22059832 -0.02855436 92.41104615 -0.02918586 C94.75843224 -0.03046479 97.10581832 -0.03176164 99.45320439 -0.03307623 C121.45459403 -0.04447708 143.45591696 -0.03137606 165.45729566 -0.00987476 C184.32752087 0.00799575 203.19764765 0.00489151 222.06787109 -0.0135498 C243.99158028 -0.03496523 265.91523102 -0.04337849 287.8389492 -0.03110075 C290.17760594 -0.02982658 292.51626268 -0.0285691 294.85491943 -0.02732849 C296.58082752 -0.02640284 296.58082752 -0.02640284 298.34160244 -0.02545848 C306.44228783 -0.02200761 314.54293609 -0.02782829 322.64361572 -0.0372467 C332.5182667 -0.0484755 342.39279052 -0.04540803 352.26742697 -0.02412373 C357.30375001 -0.01362526 362.33986118 -0.00947105 367.37618256 -0.02272034 C371.99018845 -0.03467487 376.60378689 -0.02803128 381.21775603 -0.00681013 C382.88315294 -0.00235703 384.54858455 -0.00458117 386.21395898 -0.01431328 C399.81152694 -0.08765401 410.70157321 1.78907019 420.88232422 11.50793457 C431.32150768 22.44323764 432.47459502 34.19386568 432.39025879 48.62561035 C432.39487347 50.35143623 432.40123018 52.07725818 432.40916777 53.80307198 C432.42580631 58.52294826 432.4176397 63.24249942 432.40522289 67.96237659 C432.39615226 73.06130445 432.41015211 78.16017738 432.42114258 83.25909424 C432.43891089 93.23896596 432.43509532 103.21871721 432.42349201 113.19859362 C432.41445134 121.31085224 432.41323645 129.42307714 432.41758728 137.53533936 C432.41820021 138.69077401 432.41881314 139.84620867 432.41944465 141.0366565 C432.42072358 143.38404259 432.42202043 145.73142867 432.42333502 148.07881474 C432.43473587 170.08020438 432.42163485 192.08152731 432.40013355 214.08290601 C432.38226304 232.95313122 432.38536728 251.82325801 432.40380859 270.69348145 C432.42522402 292.61719063 432.43363728 314.54084137 432.42135954 336.46455956 C432.42008537 338.80321629 432.41882789 341.14187303 432.41758728 343.48052979 C432.41666163 345.20643788 432.41666163 345.20643788 432.41571727 346.9672128 C432.4122664 355.06789818 432.41808708 363.16854644 432.42750549 371.26922607 C432.43873429 381.14387705 432.43566681 391.01840087 432.41438252 400.89303732 C432.40388405 405.92936036 432.39972984 410.96547153 432.41297913 416.00179291 C432.42493366 420.6157988 432.41829007 425.22939724 432.39706892 429.84336638 C432.39261582 431.50876329 432.39483995 433.17419491 432.40457207 434.83956933 C432.4779128 448.43713729 430.6011886 459.32718356 420.88232422 469.50793457 C409.94702115 479.94711803 398.19639311 481.10020537 383.76464844 481.01586914 C382.03882256 481.02048382 380.31300061 481.02684054 378.58718681 481.03477812 C373.86731053 481.05141666 369.14775937 481.04325005 364.42788219 481.03083324 C359.32895434 481.02176261 354.2300814 481.03576246 349.13116455 481.04675293 C339.15129283 481.06452124 329.17154158 481.06070567 319.19166517 481.04910237 C311.07940655 481.04006169 302.96718165 481.0388468 294.85491943 481.04319763 C293.69948478 481.04381056 292.54405012 481.0444235 291.35360229 481.045055 C289.0062162 481.04633393 286.65883012 481.04763078 284.31144404 481.04894537 C262.31005441 481.06034622 240.30873148 481.0472452 218.30735278 481.0257439 C199.43712757 481.00787339 180.56700078 481.01097763 161.69677734 481.02941895 C139.77306816 481.05083437 117.84941742 481.05924763 95.92569923 481.04696989 C93.5870425 481.04569572 91.24838576 481.04443824 88.909729 481.04319763 C87.18382091 481.04227198 87.18382091 481.04227198 85.42304599 481.04132763 C77.32236061 481.03787675 69.22171235 481.04369743 61.12103271 481.05311584 C51.24638174 481.06434464 41.37185792 481.06127717 31.49722147 481.03999287 C26.46089843 481.0294944 21.42478726 481.02534019 16.38846588 481.03858948 C11.77445999 481.05054401 7.16086155 481.04390042 2.5468924 481.02267927 C0.8814955 481.01822617 -0.78393612 481.02045031 -2.44931054 481.03018242 C-16.0468785 481.10352315 -26.93692478 479.22679895 -37.11767578 469.50793457 C-47.55685924 458.5726315 -48.70994658 446.82200346 -48.62561035 432.39025879 C-48.63022503 430.66443291 -48.63658175 428.93861096 -48.64451933 427.21279716 C-48.66115787 422.49292088 -48.65299126 417.77336972 -48.64057446 413.05349255 C-48.63150382 407.95456469 -48.64550367 402.85569176 -48.65649414 397.7567749 C-48.67426245 387.77690318 -48.67044688 377.79715193 -48.65884358 367.81727552 C-48.6498029 359.7050169 -48.64858801 351.592792 -48.65293884 343.48052979 C-48.65355177 342.32509513 -48.65416471 341.16966047 -48.65479621 339.97921264 C-48.65607514 337.63182655 -48.65737199 335.28444047 -48.65868658 332.9370544 C-48.67008743 310.93566476 -48.65698641 288.93434183 -48.63548511 266.93296313 C-48.6176146 248.06273792 -48.62071884 229.19261114 -48.63916016 210.3223877 C-48.66057558 188.39867851 -48.66898884 166.47502777 -48.6567111 144.55130959 C-48.65543693 142.21265285 -48.65417945 139.87399611 -48.65293884 137.53533936 C-48.65232174 136.38473396 -48.65170464 135.23412857 -48.65106884 134.04865634 C-48.64761796 125.94797096 -48.65343864 117.8473227 -48.66285706 109.74664307 C-48.67408586 99.87199209 -48.67101838 89.99746827 -48.64973408 80.12283182 C-48.63923561 75.08650878 -48.6350814 70.05039761 -48.64833069 65.01407623 C-48.66028522 60.40007034 -48.65364163 55.7864719 -48.63242048 51.17250276 C-48.62796738 49.50710585 -48.63019152 47.84167423 -48.63992363 46.17629981 C-48.71326436 32.57873185 -46.83654016 21.68868558 -37.11767578 11.50793457 C-26.18237271 1.06875111 -14.43174467 -0.08433623 0 0 Z M-26.49267578 24.94543457 C-27.13978516 25.68664551 -27.78689453 26.42785645 -28.45361328 27.19152832 C-31.83789396 31.90251058 -32.36192868 35.80821946 -32.31298828 41.55871582 C-32.31015839 42.21752243 -32.30732849 42.87632904 -32.30441284 43.55509949 C-32.29328502 45.64373519 -32.26819526 47.73193013 -32.24267578 49.82043457 C-32.23263637 51.24295439 -32.2235122 52.66548097 -32.21533203 54.0880127 C-32.19507774 57.5616233 -32.15591774 61.03428996 -32.11767578 64.50793457 C-26.83767578 64.50793457 -21.55767578 64.50793457 -16.11767578 64.50793457 C-16.11767578 69.78793457 -16.11767578 75.06793457 -16.11767578 80.50793457 C-21.39767578 80.50793457 -26.67767578 80.50793457 -32.11767578 80.50793457 C-32.20892035 126.85356136 -32.27971149 173.1991763 -32.3219371 219.54487526 C-32.32693994 225.01604166 -32.33211723 230.48720789 -32.33740234 235.95837402 C-32.33845159 237.04758762 -32.33950083 238.13680122 -32.34058186 239.25902129 C-32.35798849 256.89688632 -32.38952762 274.53469922 -32.42628697 292.17253333 C-32.46368918 310.26972213 -32.48591012 328.36688362 -32.49402976 346.46410948 C-32.49951901 357.63164465 -32.51685825 368.79903247 -32.54934165 379.96652228 C-32.57048063 387.6238299 -32.57687721 395.28106129 -32.57168129 402.93839597 C-32.56911857 407.35671839 -32.57305527 411.77478326 -32.59449768 416.19305992 C-32.61399697 420.24054251 -32.61492404 424.2875949 -32.60127136 428.3350975 C-32.59958458 429.79689862 -32.60463032 431.25872685 -32.61720851 432.72047483 C-32.69341889 442.12640551 -32.20807263 449.71507243 -25.93408203 457.06652832 C-25.19029297 457.68656738 -24.44650391 458.30660645 -23.68017578 458.94543457 C-22.93896484 459.58352051 -22.19775391 460.22160645 -21.43408203 460.87902832 C-16.73255854 464.18515867 -12.82730842 464.75841962 -7.1244545 464.76241016 C-6.42914843 464.76561664 -5.73384237 464.76882312 -5.01746643 464.77212676 C-2.68215387 464.78044351 -0.34709665 464.77449667 1.98822021 464.76863098 C3.67729113 464.77165091 5.36636067 464.7755396 7.05542779 464.78022355 C11.70142426 464.79053293 16.34734382 464.78831424 20.99334669 464.78404295 C26.0023479 464.78158101 31.01133033 464.79058334 36.02032471 464.79808044 C45.83588223 464.81084494 55.65141242 464.8126189 65.46697685 464.81028018 C73.44494985 464.80849858 81.42291453 464.81024327 89.40088654 464.81450462 C91.10281976 464.81539741 91.10281976 464.81539741 92.83913548 464.81630823 C95.14400623 464.81751996 97.44887698 464.81873409 99.75374773 464.8199506 C121.38114516 464.83083318 143.00852701 464.82866043 164.63592532 464.82256576 C184.4235845 464.81739768 204.21119444 464.8286479 223.99884388 464.84766398 C244.3110232 464.86703462 264.62317921 464.87529962 284.93536782 464.87154073 C296.34134557 464.86962728 307.74728142 464.87213002 319.15325165 464.88625526 C328.86485409 464.89816027 338.57638885 464.89958393 348.28799221 464.8874651 C353.24298792 464.88156984 358.19785978 464.88049483 363.15284729 464.8924675 C367.69043516 464.90330414 372.22779543 464.90024934 376.76537254 464.88620581 C378.40534533 464.88355274 380.04533583 464.88594458 381.68529126 464.89394168 C395.04499936 465.09070269 395.04499936 465.09070269 407.15185547 459.96496582 C407.66103516 459.42227051 408.17021484 458.8795752 408.69482422 458.32043457 C409.21689453 457.79062988 409.73896484 457.2608252 410.27685547 456.71496582 C416.26822099 448.47866042 416.44860071 441.60322777 416.36334229 431.65112305 C416.36509371 430.13819083 416.36860457 428.6252598 416.37371826 427.11233521 C416.38267105 422.95900306 416.3666632 418.80608503 416.34661514 414.65280545 C416.32912866 410.10375161 416.33499488 405.55471638 416.33788681 401.00563812 C416.34001217 392.17801232 416.32155545 383.35054947 416.29588149 374.52296552 C416.26706978 364.31058239 416.26390187 354.09829699 416.26074219 343.88586426 C416.23974494 316.92652856 416.18390043 289.96722911 416.13232422 263.00793457 C416.00857422 172.67043457 416.00857422 172.67043457 415.88232422 80.50793457 C278.60232422 80.50793457 141.32232422 80.50793457 -0.11767578 80.50793457 C-0.11767578 75.22793457 -0.11767578 69.94793457 -0.11767578 64.50793457 C137.16232422 64.50793457 274.44232422 64.50793457 415.88232422 64.50793457 C418.04272711 41.17755972 418.04272711 41.17755972 410.24169922 24.30090332 C409.71060547 23.77109863 409.17951172 23.24129395 408.63232422 22.69543457 C408.11154297 22.15273926 407.59076172 21.61004395 407.05419922 21.05090332 C398.96005725 15.30056865 389.85069614 16.08238458 380.37097168 16.12025452 C378.67447224 16.11607947 376.9779756 16.11060101 375.28148413 16.10393471 C370.62890119 16.08948407 365.97649546 16.09372363 361.32390285 16.10110152 C356.30269506 16.10583175 351.28152568 16.09332468 346.2603302 16.08308411 C336.42746109 16.06588859 326.59465586 16.06505758 316.76177561 16.07029701 C308.77051369 16.07433815 300.77927066 16.07289582 292.78800964 16.06754875 C291.65072988 16.06680033 290.51345011 16.06605191 289.34170732 16.06528081 C287.03135844 16.06374934 284.72100956 16.06221099 282.41066068 16.06066584 C260.74559834 16.04693834 239.08057211 16.05238049 217.41551059 16.06385105 C197.59178444 16.07378607 177.76815159 16.06083854 157.94443983 16.03691686 C137.59035485 16.01254013 117.23631336 16.00291433 96.88221407 16.00956959 C85.45450407 16.01306467 74.02686585 16.01081053 62.59916687 15.99331856 C52.87221814 15.97861453 43.14539175 15.97793773 33.41844547 15.99538947 C28.45541909 16.0039162 23.49261144 16.00600813 18.52959633 15.99073792 C13.98594829 15.97693097 9.44270721 15.98160243 4.89908296 16.00097715 C3.25585401 16.00474972 1.61259276 16.00177909 -0.03060752 15.9913655 C-10.79966002 15.92797328 -19.05712322 16.18969206 -26.49267578 24.94543457 Z " fill="#000000" transform="translate(64.11767578125,15.4920654296875)"/>
<path d="M0 0 C6.15105512 0.83263013 6.15105512 0.83263013 8.68359375 2.875 C10.17277946 6.29136722 10.95655891 9.66849304 11.74609375 13.3125 C12.34035156 13.11914062 12.93460938 12.92578125 13.546875 12.7265625 C32.86537209 6.65761007 52.49976599 6.6605434 71.74609375 13.3125 C71.91625 12.62542969 72.08640625 11.93835938 72.26171875 11.23046875 C72.62523437 9.87888672 72.62523437 9.87888672 72.99609375 8.5 C73.228125 7.60667969 73.46015625 6.71335938 73.69921875 5.79296875 C74.92553668 2.8873274 76.04181898 1.88108122 78.74609375 0.3125 C82.21611119 -0.20431111 84.09190266 -0.03175636 87.203125 1.60546875 C91.71479737 6.40821676 92.6817081 13.01965906 94.35546875 19.2734375 C96.77235918 27.3901612 100.19034199 31.14382595 106.74609375 36.3125 C122.06298323 51.69341507 130.0662419 74.43978325 130.05859375 95.875 C129.98216683 98.3551768 129.88128946 100.83483171 129.74609375 103.3125 C129.71386719 104.22257812 129.68164062 105.13265625 129.6484375 106.0703125 C128.36142176 126.59656359 115.62445942 148.56143049 100.74609375 162.3125 C80.48241326 179.31843222 56.37014385 186.26583329 30.171875 184.00390625 C11.64235094 181.47816895 -4.14095561 173.24223176 -18.25390625 161.3125 C-18.9190625 160.75046875 -19.58421875 160.1884375 -20.26953125 159.609375 C-29.10387312 151.43554467 -35.95679858 140.45863751 -40.25390625 129.3125 C-40.62128906 128.40886719 -40.98867187 127.50523437 -41.3671875 126.57421875 C-49.22130306 106.38200165 -48.48723542 82.10388971 -40.0859375 62.17773438 C-34.34934263 49.31752756 -26.69219066 38.8969764 -16.21020508 29.47558594 C-14.00320821 27.03530237 -13.23738323 25.15510656 -12.25390625 22.03125 C-11.75890625 20.52111328 -11.75890625 20.52111328 -11.25390625 18.98046875 C-10.92390625 17.93503906 -10.59390625 16.88960937 -10.25390625 15.8125 C-9.59844319 13.73601351 -8.93214536 11.66290917 -8.25390625 9.59375 C-7.96515625 8.67658203 -7.67640625 7.75941406 -7.37890625 6.81445312 C-5.80740042 3.31948965 -3.94727242 0.54728214 0 0 Z " fill="#020102" transform="translate(158.25390625,215.6875)"/>
<path d="M0 0 C15.84 0 31.68 0 48 0 C48.33 7.59 48.66 15.18 49 23 C53.35531319 27.6328275 53.35531319 27.6328275 58.3984375 29.87890625 C59.20796875 30.16056641 60.0175 30.44222656 60.8515625 30.73242188 C61.68429688 31.00634766 62.51703125 31.28027344 63.375 31.5625 C69.34503 33.57272104 74.5799532 35.7850673 80 39 C82.95625267 39.9168463 82.95625267 39.9168463 86 39 C88.96737127 36.967035 91.45456844 34.53167247 94 32 C94.82886719 31.1853125 95.65773438 30.370625 96.51171875 29.53125 C98.69065274 27.36941911 100.85211984 25.19262766 103 23 C107.75085867 26.96372525 112.23613112 31.09794782 116.58984375 35.4921875 C117.17923233 36.08299103 117.76862091 36.67379456 118.37586975 37.28250122 C120.23213727 39.14430404 122.08487085 41.00957745 123.9375 42.875 C125.20614672 44.14867011 126.4750249 45.42210971 127.74414062 46.6953125 C130.83210554 49.79422043 133.91690929 52.89624301 137 56 C135.72678341 58.79934525 134.42476367 60.81197577 132.21484375 62.9453125 C131.68439453 63.46480469 131.15394531 63.98429687 130.60742188 64.51953125 C130.05634766 65.04933594 129.50527344 65.57914062 128.9375 66.125 C123.71510044 70.78024495 123.71510044 70.78024495 121.73828125 77.21484375 C122.03393063 81.49072812 123.12197296 83.83221982 125.1875 87.5625 C128.4424649 93.62785729 130.81083004 99.70054744 132.95703125 106.234375 C133.81800155 109.09274319 133.81800155 109.09274319 136 111 C138.52037964 111.37135915 138.52037964 111.37135915 141.4453125 111.4140625 C142.41484863 111.44967285 143.38438477 111.4852832 144.38330078 111.52197266 C146.23544189 111.57297119 146.23544189 111.57297119 148.125 111.625 C152.04375 111.74875 155.9625 111.8725 160 112 C160 127.84 160 143.68 160 160 C148.1875 160.4375 148.1875 160.4375 144.47338867 160.56811523 C143.5063501 160.60622314 142.53931152 160.64433105 141.54296875 160.68359375 C140.55321045 160.72025146 139.56345215 160.75690918 138.54370117 160.79467773 C135.8781649 160.90790331 135.8781649 160.90790331 133 162 C132.21610982 163.79147687 132.21610982 163.79147687 131.75 166.0625 C130.39915177 171.05413706 128.52884016 175.65983229 126.4375 180.375 C126.13231445 181.064729 125.82712891 181.75445801 125.51269531 182.46508789 C124.33275939 185.10637381 123.13859838 187.72922833 121.8203125 190.3046875 C120.42829353 193.1815267 120.45163174 194.83165003 121 198 C123.61008112 201.82388785 126.92223081 204.98497765 130.28125 208.1484375 C131.0134375 208.84195313 131.745625 209.53546875 132.5 210.25 C133.1909375 210.87390625 133.881875 211.4978125 134.59375 212.140625 C136 214 136 214 135.77085876 215.90997314 C134.88663107 218.3073768 133.87515874 219.49924736 132.07250977 221.29980469 C131.45839737 221.92014587 130.84428497 222.54048706 130.21156311 223.17962646 C129.54491135 223.83706848 128.87825958 224.4945105 128.19140625 225.171875 C127.1685276 226.1955014 127.1685276 226.1955014 126.12498474 227.23980713 C124.68351299 228.67894002 123.23835094 230.11438471 121.78979492 231.54638672 C119.56576178 233.74677291 117.35539955 235.96022974 115.14648438 238.17578125 C113.74558318 239.57110763 112.34391635 240.96566582 110.94140625 242.359375 C110.27677872 243.02491394 109.61215118 243.69045288 108.92738342 244.37615967 C108.31011887 244.98389221 107.69285431 245.59162476 107.05688477 246.21777344 C106.51363052 246.75642029 105.97037628 247.29506714 105.41065979 247.85003662 C104 249 104 249 102 249 C100.5546875 247.49609375 100.5546875 247.49609375 98.875 245.4375 C96.35192596 242.48954239 93.7870398 239.69873452 90.9375 237.0625 C90.32777344 236.49660156 89.71804688 235.93070313 89.08984375 235.34765625 C86.23486912 233.50659784 84.41549849 233.08180835 81 233 C78.13625325 233.93673264 75.53864021 235.29006706 72.875 236.6875 C66.79706867 239.73305921 60.8803373 242.24029367 54.3203125 244.11328125 C51.72688401 245.10437261 50.69244798 245.81450477 49 248 C48.49520343 250.6068023 48.49520343 250.6068023 48.48828125 253.54296875 C48.43861206 254.99352661 48.43861206 254.99352661 48.38793945 256.47338867 C48.36304443 257.69904541 48.33814941 258.92470215 48.3125 260.1875 C48.1578125 266.0346875 48.1578125 266.0346875 48 272 C32.16 272 16.32 272 0 272 C-0.4375 260.1875 -0.4375 260.1875 -0.56811523 256.47338867 C-0.60622314 255.5063501 -0.64433105 254.53931152 -0.68359375 253.54296875 C-0.72025146 252.55321045 -0.75690918 251.56345215 -0.79467773 250.54370117 C-0.90790331 247.8781649 -0.90790331 247.8781649 -2 245 C-4.02411108 244.21520052 -4.02411108 244.21520052 -6.5625 243.75 C-11.80594284 242.46153244 -16.5783551 240.61447801 -21.5 238.4375 C-22.19424072 238.13231445 -22.88848145 237.82712891 -23.60375977 237.51269531 C-26.58137253 236.17859621 -29.27886697 234.81408869 -32 233 C-34.78444577 232.24616662 -34.78444577 232.24616662 -38 233 C-41.82566216 235.60588582 -44.9857116 238.92301013 -48.1484375 242.28125 C-48.84195313 243.0134375 -49.53546875 243.745625 -50.25 244.5 C-50.87390625 245.1909375 -51.4978125 245.881875 -52.140625 246.59375 C-54 248 -54 248 -55.90997314 247.77085876 C-58.3073768 246.88663107 -59.49924736 245.87515874 -61.29980469 244.07250977 C-61.92014587 243.45839737 -62.54048706 242.84428497 -63.17962646 242.21156311 C-63.83706848 241.54491135 -64.4945105 240.87825958 -65.171875 240.19140625 C-66.1955014 239.1685276 -66.1955014 239.1685276 -67.23980713 238.12498474 C-68.67894002 236.68351299 -70.11438471 235.23835094 -71.54638672 233.78979492 C-73.74677291 231.56576178 -75.96022974 229.35539955 -78.17578125 227.14648438 C-79.57110763 225.74558318 -80.96566582 224.34391635 -82.359375 222.94140625 C-83.02491394 222.27677872 -83.69045288 221.61215118 -84.37615967 220.92738342 C-84.98389221 220.31011887 -85.59162476 219.69285431 -86.21777344 219.05688477 C-86.75642029 218.51363052 -87.29506714 217.97037628 -87.85003662 217.41065979 C-89 216 -89 216 -89 214 C-87.49609375 212.5546875 -87.49609375 212.5546875 -85.4375 210.875 C-82.48954239 208.35192596 -79.69873452 205.7870398 -77.0625 202.9375 C-76.49660156 202.32777344 -75.93070313 201.71804688 -75.34765625 201.08984375 C-73.50659784 198.23486912 -73.08180835 196.41549849 -73 193 C-73.93672677 190.1362712 -75.28983504 187.5385088 -76.6875 184.875 C-79.73951388 178.79603199 -82.21712205 172.90870598 -84.015625 166.3203125 C-84.98939355 163.48489701 -84.98939355 163.48489701 -89 161 C-100.385 160.505 -100.385 160.505 -112 160 C-112 144.16 -112 128.32 -112 112 C-104.41 111.67 -96.82 111.34 -89 111 C-87.02 110.505 -87.02 110.505 -85 110 C-84.86464844 109.3915625 -84.72929688 108.783125 -84.58984375 108.15625 C-83.07766984 101.99889517 -80.98325949 96.2895816 -78.4375 90.5 C-78.13255615 89.80583984 -77.8276123 89.11167969 -77.51342773 88.39648438 C-76.17852764 85.41916411 -74.81413711 82.72120567 -73 80 C-72.24616662 77.21555423 -72.24616662 77.21555423 -73 74 C-75.60588582 70.17433784 -78.92301013 67.0142884 -82.28125 63.8515625 C-83.0134375 63.15804687 -83.745625 62.46453125 -84.5 61.75 C-85.1909375 61.12609375 -85.881875 60.5021875 -86.59375 59.859375 C-88 58 -88 58 -87.92480469 56.24121094 C-86.55686744 52.92609374 -84.13261863 50.74526528 -81.609375 48.28125 C-81.06774719 47.74149536 -80.52611938 47.20174072 -79.96807861 46.64562988 C-78.82156764 45.50583425 -77.67146795 44.36963872 -76.51806641 43.23681641 C-74.76340974 41.51317273 -73.01951307 39.77922406 -71.27734375 38.04296875 C-70.15947127 36.93427328 -69.04100058 35.82618057 -67.921875 34.71875 C-67.1450235 33.94827332 -67.1450235 33.94827332 -66.35247803 33.16223145 C-64.04581224 30.90016375 -61.72258161 28.77941619 -59.19238281 26.76757812 C-56.91977776 25.18589983 -56.91977776 25.18589983 -56 23 C-53.08909619 24.30555095 -51.13215821 25.66050972 -48.9765625 28.00390625 C-48.43 28.57947266 -47.8834375 29.15503906 -47.3203125 29.74804688 C-46.19178241 30.95588611 -45.06933952 32.16944223 -43.953125 33.38867188 C-41.41369133 36.04434723 -39.55224842 37.78474188 -36.09375 39.1328125 C-31.74709508 38.94621368 -28.68373898 37.30962384 -24.875 35.3125 C-8.20474466 27 -8.20474466 27 -2 27 C-0.98412022 23.95236066 -0.80195594 21.65281033 -0.68359375 18.45703125 C-0.64548584 17.48999268 -0.60737793 16.5229541 -0.56811523 15.52661133 C-0.52501221 14.30095459 -0.48190918 13.07529785 -0.4375 11.8125 C-0.293125 7.914375 -0.14875 4.01625 0 0 Z M-23.80419922 44.05395508 C-26.08135008 47.75978797 -26.93120015 51.96019828 -28.0625 56.125 C-30.75791482 65.11978516 -34.15117055 70.34646228 -41.140625 76.46484375 C-54.53161036 88.33745235 -62.6517209 109.55053279 -64 127 C-64.59101525 138.29637174 -64.49868819 149.14611505 -61 160 C-60.80664062 160.61794434 -60.61328125 161.23588867 -60.4140625 161.87255859 C-53.1731254 184.56194561 -38.30483278 202.95499231 -17.16699219 214.26635742 C-6.79561207 219.57976773 4.24964626 223.57336083 16 224 C17.25425781 224.0515625 18.50851563 224.103125 19.80078125 224.15625 C45.45281333 224.87110396 67.0418642 216.05076238 86 199 C100.83207566 184.64466963 111.02884457 163.67989795 112 143 C112.09667969 141.25976562 112.09667969 141.25976562 112.1953125 139.484375 C112.85652044 117.35594926 106.20643656 95.46366163 91 79 C90.28328125 78.16726562 89.5665625 77.33453125 88.828125 76.4765625 C84.80534687 71.80820998 84.80534687 71.80820998 80 68 C79.00439453 65.63330078 79.00439453 65.63330078 78.1328125 62.6953125 C77.63974609 61.10783203 77.63974609 61.10783203 77.13671875 59.48828125 C76.46504126 57.25540744 75.79832925 55.02103362 75.13671875 52.78515625 C74.80542969 51.72425781 74.47414062 50.66335937 74.1328125 49.5703125 C73.84293457 48.59852051 73.55305664 47.62672852 73.25439453 46.62548828 C71.70793312 43.38869459 69.97286517 41.96353453 67 40 C64 39.25 64 39.25 61 40 C55.9957192 43.63947694 55.08300489 47.19115559 54 53 C53.10539062 52.72285156 52.21078125 52.44570312 51.2890625 52.16015625 C44.18750501 50.03271738 37.44077882 48.27315634 30 48 C28.90558594 47.93683594 27.81117188 47.87367188 26.68359375 47.80859375 C15.42889989 47.43860912 4.68160616 49.43946461 -6 53 C-6.15855469 52.31292969 -6.31710938 51.62585938 -6.48046875 50.91796875 C-7.8400172 45.30355527 -7.8400172 45.30355527 -11.3125 40.875 C-17.10837626 38.98797052 -19.8885994 39.11012663 -23.80419922 44.05395508 Z " fill="#346AA8" transform="translate(176,176)"/>
<path d="M0 0 C0.33 0 0.66 0 1 0 C1.07012479 25.90403411 1.12300522 51.80805397 1.15543652 77.71216393 C1.17089611 89.7402705 1.19196835 101.76831804 1.22631836 113.79638672 C1.25624841 124.28176623 1.2755816 134.76710298 1.28226548 145.25252402 C1.28617161 150.80290815 1.2953328 156.35316998 1.31719017 161.90351486 C1.33761221 167.13193345 1.34382222 172.3601798 1.33932304 177.58863449 C1.34014569 179.50338681 1.34607713 181.41814513 1.35761642 183.33286285 C1.49274596 206.91973791 1.49274596 206.91973791 -6.91015625 216.95703125 C-14.68387884 224.55638997 -23.87309999 227.32145405 -34.51048279 227.24050903 C-35.34134134 227.24221788 -36.17219989 227.24392673 -37.02823597 227.24568737 C-39.79812864 227.24896826 -42.56777632 227.23800173 -45.33764648 227.22705078 C-47.32880141 227.22648636 -49.31995676 227.22680382 -51.31111145 227.22793579 C-56.70725564 227.22850911 -62.10331073 227.21675802 -67.49943423 227.20278788 C-73.14220143 227.19027718 -78.78497071 227.18910975 -84.42774963 227.18673706 C-95.10899193 227.1805233 -105.79019323 227.16411385 -116.47141749 227.14403808 C-128.63337413 227.12167588 -140.79533275 227.11068484 -152.95730484 227.10064721 C-177.97155927 227.07974756 -202.98577734 227.04457356 -228 227 C-227.525625 226.566875 -227.05125 226.13375 -226.5625 225.6875 C-223.68327174 222.57793348 -223.82727203 219.28179869 -223.68359375 215.23828125 C-223.64169922 214.12001953 -223.59980469 213.00175781 -223.55664062 211.84960938 C-223.51732422 210.68236328 -223.47800781 209.51511719 -223.4375 208.3125 C-223.39431641 207.13365234 -223.35113281 205.95480469 -223.30664062 204.74023438 C-223.20048824 201.82694117 -223.09843758 198.91356243 -223 196 C-220.56292162 195.0197729 -218.12536055 194.04077829 -215.6875 193.0625 C-214.99720703 192.78470703 -214.30691406 192.50691406 -213.59570312 192.22070312 C-210.74732227 191.07859872 -207.91209306 189.97069769 -205 189 C-204.29037109 189.7724707 -204.29037109 189.7724707 -203.56640625 190.56054688 C-201.3990789 192.8947542 -199.20046195 195.19702069 -197 197.5 C-196.25621094 198.31082031 -195.51242187 199.12164062 -194.74609375 199.95703125 C-190.13669421 204.90249688 -190.13669421 204.90249688 -183.9375 206.96875 C-175.56518594 205.68620986 -168.41637155 195.56343668 -162.72265625 189.85546875 C-161.87070175 189.00447098 -161.01874725 188.15347321 -160.14097595 187.27668762 C-158.355695 185.49208294 -156.57165928 183.70623176 -154.78881836 181.91918945 C-152.04980339 179.17477838 -149.30544048 176.43579568 -146.56054688 173.69726562 C-144.82259558 171.95865423 -143.08495414 170.21973305 -141.34765625 168.48046875 C-140.52483658 167.65967331 -139.70201691 166.83887787 -138.85426331 165.99320984 C-138.09935104 165.23514542 -137.34443878 164.47708099 -136.56665039 163.69604492 C-135.90016983 163.02876877 -135.23368927 162.36149261 -134.54701233 161.67399597 C-131.9155086 158.82649013 -131.38446128 156.15880913 -131.43359375 152.27734375 C-132.64547218 147.40475668 -136.92127924 144.28286467 -140.5 141 C-141.71623047 139.83791016 -141.71623047 139.83791016 -142.95703125 138.65234375 C-144.95375266 136.7495857 -146.97460834 134.87221078 -149 133 C-145.535 124.09 -145.535 124.09 -142 115 C-140.24171875 114.95101562 -138.4834375 114.90203125 -136.671875 114.8515625 C-134.36456746 114.77652811 -132.05727657 114.70098057 -129.75 114.625 C-128.59113281 114.5940625 -127.43226563 114.563125 -126.23828125 114.53125 C-125.12324219 114.49257813 -124.00820313 114.45390625 -122.859375 114.4140625 C-121.83295898 114.3826416 -120.80654297 114.3512207 -119.74902344 114.31884766 C-116.98339518 113.99807408 -115.28514291 113.578152 -113 112 C-112.07500217 108.9017122 -112.07500217 108.9017122 -111.75 105.375 C-111.60046875 104.18648438 -111.4509375 102.99796875 -111.296875 101.7734375 C-111.19890625 100.85820312 -111.1009375 99.94296875 -111 99 C-109.88625 98.90203125 -108.7725 98.8040625 -107.625 98.703125 C-77.88743951 95.87738396 -48.03249257 85.22473734 -28 62 C-27.24589844 61.12601562 -26.49179687 60.25203125 -25.71484375 59.3515625 C-11.78151411 42.54639454 -2.82145819 21.64739476 0 0 Z " fill="#6E767E" transform="translate(463,237)"/>
<path d="M0 0 C0.69699444 -0.00350607 1.39398888 -0.00701215 2.11210436 -0.01062447 C4.45315596 -0.01994583 6.79395921 -0.0150133 9.13502121 -0.01015663 C10.82821727 -0.01389253 12.5214116 -0.01849381 14.21460319 -0.02388728 C18.87199748 -0.0361403 23.52932007 -0.0358541 28.18672681 -0.03349853 C33.20800084 -0.03309094 38.2292517 -0.04412399 43.25051498 -0.05361366 C53.09013286 -0.07023751 62.92972679 -0.07572384 72.76935753 -0.07683842 C80.76687705 -0.07778828 88.76438865 -0.0818955 96.76190567 -0.08823967 C119.43050215 -0.10585624 142.09907968 -0.11507795 164.76768306 -0.11357872 C165.99014671 -0.11349881 167.21261037 -0.1134189 168.47211838 -0.11333656 C169.69607275 -0.1132548 170.92002712 -0.11317304 172.18107101 -0.1130888 C192.01724211 -0.11227589 211.85333728 -0.1314137 231.68948641 -0.1596133 C252.05138703 -0.18833215 272.41325061 -0.20215412 292.775172 -0.20042574 C304.20911155 -0.19976147 315.64297152 -0.20526995 327.07689285 -0.22678185 C336.81229695 -0.24498053 346.54758539 -0.24935179 356.28299913 -0.235763 C361.25018342 -0.22922661 366.21714574 -0.22914041 371.18430901 -0.2464695 C375.73305606 -0.2621756 380.28140468 -0.25936174 384.83014187 -0.24190123 C386.4741542 -0.2388259 388.11819608 -0.24248381 389.76217356 -0.25362138 C399.54565884 -0.3155031 407.82386758 -0.15268104 415.5497551 6.44086266 C416.16979416 7.18465172 416.78983322 7.92844078 417.42866135 8.69476891 C418.06674728 9.43597984 418.70483322 10.17719078 419.3622551 10.94086266 C427.26411106 22.17779452 422.99116135 33.47633556 422.99116135 48.25726891 C285.71116135 48.25726891 148.43116135 48.25726891 6.99116135 48.25726891 C6.99116135 50.89726891 6.99116135 53.53726891 6.99116135 56.25726891 C1.71116135 56.25726891 -3.56883865 56.25726891 -9.00883865 56.25726891 C-9.00883865 53.61726891 -9.00883865 50.97726891 -9.00883865 48.25726891 C-14.28883865 48.25726891 -19.56883865 48.25726891 -25.00883865 48.25726891 C-25.10122757 44.13056385 -25.18068597 40.00652985 -25.22856522 35.87933922 C-25.24854495 34.47882417 -25.27573885 33.07839109 -25.31059647 31.67816734 C-25.54162396 22.15168077 -25.33087366 15.12825648 -18.8252449 7.79633141 C-17.70956131 6.84887047 -17.70956131 6.84887047 -16.57133865 5.88226891 C-15.83012772 5.23515953 -15.08891678 4.58805016 -14.3252449 3.92133141 C-9.64135013 0.55650986 -5.71529957 0.00648443 0 0 Z " fill="#498BDC" transform="translate(57.00883865356445,31.74273109436035)"/>
<path d="M0 0 C0 5.28 0 10.56 0 16 C5.28 16 10.56 16 16 16 C16 11.05 16 6.1 16 1 C37.96652329 0.36681862 59.25683531 11.56713221 74.93408203 26.34448242 C91.72091949 42.82514486 102.85698739 64.28248836 104 88 C98.72 88 93.44 88 88 88 C88 93.28 88 98.56 88 104 C93.28 104 98.56 104 104 104 C101.97215698 125.0158277 94.9117597 142.99558153 81 159 C80.5565625 159.58652344 80.113125 160.17304688 79.65625 160.77734375 C66.90245687 177.3028379 43.18451564 188.58941888 22.9128418 191.68896484 C19.80564144 192.02075373 16.78805489 192.066668 13.6640625 192.04296875 C12.06618896 192.03366333 12.06618896 192.03366333 10.43603516 192.02416992 C9.23019775 192.01220581 9.23019775 192.01220581 8 192 C7.970271 190.06966919 7.970271 190.06966919 7.93994141 188.1003418 C7.86393595 183.33109793 7.77521076 178.56216119 7.68261719 173.79321289 C7.64430652 171.72817035 7.60945734 169.6630606 7.578125 167.59790039 C7.53251986 164.63142862 7.47451799 161.6654204 7.4140625 158.69921875 C7.40251129 157.7741301 7.39096008 156.84904144 7.37905884 155.8959198 C7.35918915 155.03525406 7.33931946 154.17458832 7.31884766 153.2878418 C7.30552399 152.53061325 7.29220032 151.7733847 7.2784729 150.99320984 C7.10291388 148.68394812 7.10291388 148.68394812 5 146 C1.88856433 144.96285478 -0.49468096 144.79968139 -3.76171875 144.68359375 C-4.87998047 144.64169922 -5.99824219 144.59980469 -7.15039062 144.55664062 C-8.31763672 144.51732422 -9.48488281 144.47800781 -10.6875 144.4375 C-11.86634766 144.39431641 -13.04519531 144.35113281 -14.25976562 144.30664062 C-17.17305883 144.20048824 -20.08643757 144.09843758 -23 144 C-24.03712685 141.61009899 -25.05468019 139.21473126 -26.0625 136.8125 C-26.35705078 136.13896484 -26.65160156 135.46542969 -26.95507812 134.77148438 C-28.64856649 130.68718891 -29.33774921 128.2190552 -28 124 C-26.50952148 122.18237305 -26.50952148 122.18237305 -24.62109375 120.51171875 C-23.94755859 119.88716797 -23.27402344 119.26261719 -22.58007812 118.61914062 C-21.15534112 117.33466944 -19.72303773 116.05854001 -18.28320312 114.79101562 C-13.82204514 110.65966946 -13.82204514 110.65966946 -12.09765625 105.01953125 C-12.55064891 101.60320703 -13.68356846 99.85912588 -15.98486328 97.32861328 C-16.61934891 96.63091324 -17.25383453 95.9332132 -17.907547 95.21437073 C-21.58899184 91.31842483 -25.34971424 87.50799771 -29.14453125 83.72265625 C-29.99552902 82.87070175 -30.84652679 82.01874725 -31.72331238 81.14097595 C-33.50791706 79.355695 -35.29376824 77.57165928 -37.08081055 75.78881836 C-39.82522162 73.04980339 -42.56420432 70.30544048 -45.30273438 67.56054688 C-47.04134577 65.82259558 -48.78026695 64.08495414 -50.51953125 62.34765625 C-51.34032669 61.52483658 -52.16112213 60.70201691 -53.00679016 59.85426331 C-53.76485458 59.09935104 -54.52291901 58.34443878 -55.30395508 57.56665039 C-55.97123123 56.90016983 -56.63850739 56.23368927 -57.32600403 55.54701233 C-60.24768219 52.84696274 -62.88459518 52.50842842 -66.84765625 52.55859375 C-70.9627891 53.40253207 -73.29792608 56.47040197 -76 59.5 C-76.87591797 60.43005859 -76.87591797 60.43005859 -77.76953125 61.37890625 C-79.19862832 62.9017146 -80.60201656 64.44857936 -82 66 C-83 64 -83 64 -82.43017578 62.21923828 C-70.17271519 35.47403052 -52.16352941 15.16649871 -24.11181641 4.71533203 C-16.32451818 2.07755356 -8.23350772 0 0 0 Z " fill="#F3F3F1" transform="translate(344,128)"/>
<path d="M0 0 C5.28 0 10.56 0 16 0 C16.09123292 46.49004273 16.16202969 92.98007364 16.20426132 139.47018829 C16.2092642 144.95766474 16.21444148 150.44514101 16.21972656 155.93261719 C16.2207758 157.02508371 16.22182505 158.11755023 16.22290608 159.2431218 C16.24031552 176.93662777 16.27185619 194.63008181 16.30861118 212.32355696 C16.34600558 230.47611155 16.36823268 248.62863892 16.37635398 266.78123045 C16.38184486 277.98408417 16.3991929 289.18679109 16.43166587 300.38959962 C16.4527952 308.06979361 16.45920362 315.74991161 16.45400551 323.43013257 C16.45144128 327.86250759 16.45539663 332.29462593 16.4768219 336.72695541 C16.4963 340.78610471 16.49726198 344.8448249 16.48359558 348.90399402 C16.48190674 350.37116087 16.48697047 351.83835458 16.49953273 353.30546862 C16.5746341 362.61915675 15.94174631 368.58129766 10.39453125 376.20703125 C9.87246094 376.73683594 9.35039062 377.26664062 8.8125 377.8125 C8.30332031 378.35519531 7.79414063 378.89789063 7.26953125 379.45703125 C-1.13495193 385.17092257 -10.88135269 384.42665005 -20.59364319 384.38768005 C-22.28688088 384.39185618 -23.98011578 384.39733522 -25.67334551 384.40399987 C-30.31226776 384.41843625 -34.95101208 384.41421542 -39.58994401 384.40683305 C-44.5981825 384.40209933 -49.60638261 384.41461293 -54.61460876 384.42485046 C-64.41993525 384.44203871 -74.22519765 384.44287855 -84.03053529 384.43763756 C-91.99936674 384.43359532 -99.96817926 384.43504005 -107.93700981 384.44038582 C-109.07137873 384.44113424 -110.20574764 384.44188266 -111.37449137 384.44265376 C-113.67896172 384.44418524 -115.98343207 384.44572359 -118.28790241 384.44726873 C-139.89335758 384.46099342 -161.49877653 384.45555589 -183.10423087 384.44408352 C-202.87292807 384.4341472 -222.64153172 384.44709878 -242.41021449 384.47101771 C-262.71009056 384.49539434 -283.00992303 384.50502036 -303.30981344 384.49836498 C-314.70620948 384.49487009 -326.10253355 384.49712293 -337.49891853 384.51461601 C-347.19839479 384.52931985 -356.89774835 384.52999702 -366.59722216 384.5125451 C-371.54607884 384.50401851 -376.49471617 384.50192614 -381.44356155 384.51719666 C-385.97421714 384.53100384 -390.5044646 384.52633185 -395.03509634 384.50695742 C-396.6735848 384.50318495 -398.31210564 384.50615519 -399.95056535 384.51656907 C-409.65621617 384.57386841 -416.96192493 384.48606376 -424.53125 377.74609375 C-425.1809375 376.98425781 -425.830625 376.22242188 -426.5 375.4375 C-427.50546875 374.29087891 -427.50546875 374.29087891 -428.53125 373.12109375 C-430 371 -430 371 -430 368 C-363.5536345 367.35463334 -297.11265472 366.89638545 -230.66292524 367.03398657 C-226.21277101 367.04312422 -221.76261512 367.05102196 -217.31245804 367.05862808 C-189.55275942 367.10624927 -161.79312038 367.16330126 -134.03352802 367.25447568 C-121.21383671 367.29620361 -108.39417257 367.32259751 -95.57442003 367.33568364 C-87.80069079 367.34417167 -80.02720014 367.36479079 -72.25355572 367.40231238 C-66.39044377 367.42944656 -60.5274279 367.43570167 -54.66424942 367.43413734 C-52.27731712 367.43682769 -49.89038086 367.44635866 -47.50350761 367.46336365 C-44.24297243 367.48559947 -40.9833421 367.48293404 -37.72276306 367.47428894 C-36.32421417 367.49278917 -36.32421417 367.49278917 -34.89741176 367.51166314 C-25.6521691 367.43486318 -16.95499668 364.63766124 -9.71875 358.765625 C-2.61659175 351.46977153 -0.68494168 342.11246812 -0.76622009 332.30754089 C-0.76471729 331.0289535 -0.76471729 331.0289535 -0.76318413 329.72453606 C-0.7622374 326.87510135 -0.77556924 324.02591506 -0.78881836 321.17651367 C-0.79100096 319.12206438 -0.79228141 317.06761397 -0.79273224 315.01316357 C-0.79562829 310.5731093 -0.80486218 306.13312885 -0.81896782 301.69309616 C-0.84151729 294.5764563 -0.85002688 287.45984013 -0.85670471 280.34317017 C-0.86756002 270.20790098 -0.88469977 260.07266032 -0.90625 249.93740845 C-0.95828684 225.19786227 -0.97667358 200.45827741 -0.99339151 175.71868587 C-0.99609628 171.86358475 -0.99916095 168.00848405 -1.002285 164.15338326 C-1.03375907 123.70401114 -0.92414697 83.25973248 -0.5 42.8125 C-0.48790874 41.64315792 -0.47581749 40.47381584 -0.46335983 39.26903915 C-0.32734005 26.17909971 -0.17509134 13.08947446 0 0 Z " fill="#474B4E" transform="translate(464,96)"/>
<path d="M0 0 C0.66 0 1.32 0 2 0 C2.33825806 1.05574219 2.33825806 1.05574219 2.68334961 2.1328125 C8.90163244 25.46577612 8.90163244 25.46577612 23 44 C25.71098282 44.19587225 28.3166414 44.28007566 31.02734375 44.265625 C31.81266983 44.26753845 32.59799591 44.2694519 33.40711975 44.27142334 C35.06723349 44.27278362 36.72735791 44.26909809 38.38745117 44.26074219 C40.92456061 44.25005451 43.46095968 44.26063512 45.99804688 44.2734375 C47.61198073 44.2721156 49.22591414 44.26955257 50.83984375 44.265625 C51.5972435 44.26967346 52.35464325 44.27372192 53.13499451 44.27789307 C58.38689528 44.23491942 58.38689528 44.23491942 63 42 C64.58214292 39.84610754 65.89173035 37.81853213 67.1875 35.5 C67.56898193 34.82453125 67.95046387 34.1490625 68.34350586 33.453125 C73.97656174 22.92551066 77.36904604 11.33262372 81 0 C85.90303009 4.90303009 88.88865339 15.10286868 89.0859375 22.0078125 C88.5897728 24.75774229 87.80419915 27.32414453 87 30 C86.7881226 31.35968839 86.59274194 32.72200678 86.41015625 34.0859375 C85.74602444 38.41617419 84.90984975 42.02642635 83 46 C78.87426776 48.62546597 74.78299308 49.26716714 70 50 C68.27981709 50.45757355 66.56859594 50.95215369 64.875 51.5 C64.19179687 51.6959375 63.50859375 51.891875 62.8046875 52.09375 C60.29341156 53.35482363 59.43297676 54.56612106 58 57 C57.69726663 59.52701442 57.56234823 61.8121374 57.56762695 64.33886719 C57.5574353 65.07096909 57.54724365 65.80307098 57.53674316 66.55735779 C57.50661486 68.97060805 57.49734776 71.38346138 57.48828125 73.796875 C57.47143439 75.47269001 57.45328414 77.14849239 57.43388367 78.82427979 C57.38637809 83.23008272 57.35657243 87.63583442 57.33044434 92.04180908 C57.30064158 96.5396944 57.25411028 101.03740318 57.20898438 105.53515625 C57.12294498 114.3566785 57.05560255 123.17823708 57 132 C51.78965896 133.08845783 46.87338064 133.18382973 41.5625 133.1875 C40.63373047 133.19974609 39.70496094 133.21199219 38.74804688 133.22460938 C37.84248047 133.22654297 36.93691406 133.22847656 36.00390625 133.23046875 C35.18736572 133.23457764 34.3708252 133.23868652 33.52954102 133.24291992 C30.48460294 132.95050477 27.8824405 131.99886491 25 131 C24.99635437 130.06927673 24.99270874 129.13855347 24.98895264 128.17962646 C24.95201667 119.40984174 24.89425963 110.64040861 24.81609726 101.87089157 C24.77658224 97.36231781 24.74441364 92.85394054 24.72900391 88.34521484 C24.71386363 83.99426964 24.67946547 79.64386447 24.63169098 75.29315948 C24.61684992 73.63302554 24.60895742 71.97281451 24.60811615 70.31261444 C24.60575281 67.98744587 24.57872744 65.66377745 24.54589844 63.33886719 C24.5509288 62.6519429 24.55595917 61.96501862 24.56114197 61.25727844 C24.48788948 57.90571882 24.20184865 56.25372341 22.08782959 53.59640503 C20.01198419 52.0091634 18.53852372 51.24794999 16.03125 50.5859375 C15.29519531 50.38226563 14.55914062 50.17859375 13.80078125 49.96875 C13.04152344 49.7728125 12.28226563 49.576875 11.5 49.375 C9.98865779 48.96958053 8.47820497 48.560828 6.96875 48.1484375 C5.97004883 47.88812744 5.97004883 47.88812744 4.95117188 47.62255859 C2.7295536 46.91370892 0.94866185 46.30277288 -1 45 C-2.02075195 42.7409668 -2.02075195 42.7409668 -2.73828125 39.94921875 C-3.13176758 38.43618164 -3.13176758 38.43618164 -3.53320312 36.89257812 C-3.79037109 35.83490234 -4.04753906 34.77722656 -4.3125 33.6875 C-4.58900391 32.64142578 -4.86550781 31.59535156 -5.15039062 30.51757812 C-6.87519206 23.69223039 -6.97345073 19.43663928 -4.58984375 12.79296875 C-4.18862305 11.66665039 -4.18862305 11.66665039 -3.77929688 10.51757812 C-3.36260742 9.36418945 -3.36260742 9.36418945 -2.9375 8.1875 C-2.65583984 7.39923828 -2.37417969 6.61097656 -2.08398438 5.79882812 C-1.39241462 3.86477711 -0.69662722 1.93223512 0 0 Z " fill="#E04020" transform="translate(159,251)"/>
<path d="M0 0 C24.29984796 0.9739418 45.27233049 14.11402122 61.6953125 31.28515625 C75.53864831 46.39093463 84.01858897 66.63572105 85 87 C79.72 87 74.44 87 69 87 C69 92.28 69 97.56 69 103 C74.28 103 79.56 103 85 103 C82.97215698 124.0158277 75.9117597 141.99558153 62 158 C61.5565625 158.58652344 61.113125 159.17304688 60.65625 159.77734375 C47.49272434 176.83374133 23.96598283 187.1307204 3.3046875 190.8359375 C0.94606923 191.00383914 -0.75900802 190.71257349 -3 190 C-1.67548828 189.38125 -1.67548828 189.38125 -0.32421875 188.75 C25.40693383 176.47733233 44.16465417 156.20179357 54.1953125 129.52734375 C59.93969096 111.48553374 61.41651481 90.49415577 57 72 C56.79375 71.09507812 56.5875 70.19015625 56.375 69.2578125 C49.60489109 42.1004438 32.77698646 20.67277416 9.33203125 5.98046875 C6.27824465 4.16538105 3.20005126 2.53932663 0 1 C0 0.67 0 0.34 0 0 Z " fill="#B5B4B5" transform="translate(363,129)"/>
<path d="M0 0 C2.96425901 3.41496506 4.27274516 7.13459595 5.625 11.375 C5.8415625 12.02210938 6.058125 12.66921875 6.28125 13.3359375 C12.30606605 31.78228788 9.22404083 50.27865242 1.125 67.5 C-5.77968414 80.37820223 -16.06255359 91.12214388 -29 98 C-29.66 98 -30.32 98 -31 98 C-31 78.2 -31 58.4 -31 38 C-24.07 36.02 -17.14 34.04 -10 32 C-7.42863137 25.1487599 -7.42863137 25.1487599 -5.4296875 18.22265625 C-5.17316406 17.21525391 -4.91664063 16.20785156 -4.65234375 15.16992188 C-4.39582031 14.14447266 -4.13929688 13.11902344 -3.875 12.0625 C-3.35467922 9.9901004 -2.83140689 7.91843883 -2.3046875 5.84765625 C-1.9641333 4.4865271 -1.9641333 4.4865271 -1.61669922 3.09790039 C-1 1 -1 1 0 0 Z " fill="#B4B3B4" transform="translate(263,278)"/>
<path d="M0 0 C0.66 0 1.32 0 2 0 C2.24234375 0.98097656 2.4846875 1.96195312 2.734375 2.97265625 C3.43429753 5.80236323 4.14831358 8.62817997 4.8671875 11.453125 C5.61129937 14.39180032 6.30119759 17.33476694 6.9453125 20.296875 C7.25508538 21.63544513 7.56497637 22.97398793 7.875 24.3125 C8.14054687 25.52550781 8.40609375 26.73851562 8.6796875 27.98828125 C9.95868733 31.77885546 9.95868733 31.77885546 16 34 C21.28 35.32 26.56 36.64 32 38 C32 57.8 32 77.6 32 98 C17.06867563 92.02747025 6.17143401 80.17988089 -1 66 C-2.9621391 61.40499057 -4.57847205 56.78830468 -6 52 C-6.24621094 51.195625 -6.49242187 50.39125 -6.74609375 49.5625 C-11.01688602 32.59714588 -7.65673534 15.3949253 0 0 Z " fill="#F1F1EF" transform="translate(136,278)"/>
<path d="M0 0 C5.28 0 10.56 0 16 0 C16 18.48 16 36.96 16 56 C34.48 56 52.96 56 72 56 C72 61.28 72 66.56 72 72 C63.33337733 72.06778403 54.66693079 72.12282068 46.000103 72.15543652 C41.97571716 72.17109069 37.95152212 72.1923242 33.92724609 72.22631836 C30.04337947 72.25892103 26.15969634 72.27685488 22.27570343 72.28463173 C20.79412192 72.29017364 19.31255042 72.30099572 17.83104706 72.31719017 C15.75530822 72.33897729 13.68032702 72.34196651 11.60449219 72.34057617 C10.42312683 72.34723801 9.24176147 72.35389984 8.02459717 72.36076355 C4.69673519 71.96382762 3.33892249 71.36230826 1 69 C-0.11817376 65.64547871 -0.1202587 63.13581736 -0.11352539 59.60083008 C-0.11367142 58.95665634 -0.11381744 58.3124826 -0.1139679 57.64878845 C-0.11327195 55.52233498 -0.10549448 53.3959694 -0.09765625 51.26953125 C-0.09579094 49.79408313 -0.09436757 48.31863439 -0.09336853 46.84318542 C-0.08955226 42.96174405 -0.07972956 39.08034015 -0.06866455 35.19891357 C-0.05843131 31.23743192 -0.05386681 27.27594419 -0.04882812 23.31445312 C-0.0381065 15.54294969 -0.0205169 7.77148488 0 0 Z " fill="#000000" transform="translate(344,160)"/>
<path d="M0 0 C-1.02046553 6.42893285 -2.68332384 12.42812342 -4.8125 18.5625 C-5.16658936 19.60555298 -5.16658936 19.60555298 -5.52783203 20.66967773 C-7.52652431 26.28614778 -10.01279881 30.62303785 -13 36 C-20.92 36 -28.84 36 -37 36 C-43.75145519 25.06907255 -47.78612026 12.65818299 -50 0 C-32.56005751 -5.32227128 -17.43994249 -5.32227128 0 0 Z " fill="#F1F1EF" transform="translate(225,244)"/>
<path d="M0 0 C0.79157421 15.56762605 -4.93117207 33.89772799 -15 46 C-15.33 46 -15.66 46 -16 46 C-16 31.81 -16 17.62 -16 3 C-5 0 -5 0 0 0 Z " fill="#F1F1EF" transform="translate(248,313)"/>
<path d="M0 0 C5.28 0 10.56 0 16 0 C16 5.28 16 10.56 16 16 C10.72 16 5.44 16 0 16 C0 10.72 0 5.44 0 0 Z " fill="#000000" transform="translate(448,48)"/>
<path d="M0 0 C5.28 0 10.56 0 16 0 C16 5.28 16 10.56 16 16 C10.72 16 5.44 16 0 16 C0 10.72 0 5.44 0 0 Z " fill="#000000" transform="translate(416,48)"/>
<path d="M0 0 C5.28 0 10.56 0 16 0 C16 5.28 16 10.56 16 16 C10.72 16 5.44 16 0 16 C0 10.72 0 5.44 0 0 Z " fill="#000000" transform="translate(384,48)"/>
<path d="M0 0 C7.70845626 0.43238923 14.60042883 1.78973848 22 4 C21.34 7.3 20.68 10.6 20 14 C19.67 13.34 19.34 12.68 19 12 C17.67726457 11.31254585 16.34093298 10.6512457 15 10 C12.96478653 8.68872152 10.94503066 7.35327965 8.9375 6 C7.89464844 5.29875 6.85179687 4.5975 5.77734375 3.875 C4.86082031 3.25625 3.94429687 2.6375 3 2 C2.01 1.34 1.02 0.68 0 0 Z " fill="#ACACAC" transform="translate(203,240)"/>
</svg>
