<?xml version="1.0" standalone="no"?>
<!DOCTYPE svg PUBLIC "-//W3C//DTD SVG 20010904//EN"
 "http://www.w3.org/TR/2001/REC-SVG-20010904/DTD/svg10.dtd">
<svg version="1.0" xmlns="http://www.w3.org/2000/svg"
 width="512.000000pt" height="512.000000pt" viewBox="0 0 512.000000 512.000000"
 preserveAspectRatio="xMidYMid meet">

<g transform="translate(0.000000,512.000000) scale(0.100000,-0.100000)"
fill="#000000" stroke="none">
<path d="M667 4609 c-97 -23 -183 -92 -229 -187 l-33 -67 -3 -1404 c-3 -1552
-6 -1459 61 -1557 19 -27 58 -66 88 -86 79 -55 145 -68 331 -68 l157 0 3 -267
3 -268 31 -55 c17 -30 50 -70 73 -87 87 -67 -20 -63 1731 -63 1751 0 1644 -4
1731 63 23 17 56 57 73 87 l31 55 3 1279 c3 1441 7 1344 -73 1434 -68 76 -120
94 -287 100 l-137 5 -3 421 -3 421 -34 63 c-41 75 -94 125 -170 161 l-56 26
-1625 2 c-927 0 -1641 -3 -1663 -8z m3288 -171 c41 -22 71 -56 90 -100 12 -29
15 -79 15 -228 l0 -190 -1750 0 -1750 0 0 183 c0 203 7 244 53 293 62 68 -52
63 1712 61 1468 -2 1602 -3 1630 -19z m105 -798 l0 -120 -1407 -2 -1408 -3
-53 -30 c-59 -32 -91 -66 -125 -129 l-22 -41 -3 -957 -2 -958 -153 0 c-83 0
-169 5 -189 10 -50 14 -97 55 -119 105 -18 38 -19 94 -19 1143 l0 1102 1750 0
1750 0 0 -120z m-2010 -1636 l0 -1345 -382 3 c-415 3 -406 2 -446 60 -16 21
-17 127 -20 1263 -2 857 0 1251 8 1277 6 20 24 48 41 62 l31 26 384 0 384 0 0
-1346z m2449 1331 c65 -33 61 44 61 -1327 0 -1163 -1 -1245 -18 -1278 -37 -75
46 -70 -1209 -70 l-1123 0 0 1345 0 1345 1130 0 c971 0 1135 -2 1159 -15z"/>
<path d="M862 4237 c-30 -32 -29 -81 3 -112 24 -25 26 -25 214 -25 202 0 231
5 250 47 17 37 13 62 -14 88 -24 25 -25 25 -228 25 -200 0 -204 0 -225 -23z"/>
<path d="M1712 4237 c-32 -34 -30 -89 4 -116 27 -21 30 -21 1063 -21 1096 1
1054 -1 1079 47 18 34 14 62 -13 88 l-24 25 -1044 0 -1044 0 -21 -23z"/>
<path d="M1455 2865 c-16 -15 -25 -36 -25 -55 0 -19 9 -40 25 -55 23 -24 29
-25 160 -25 131 0 137 1 160 25 16 15 25 36 25 55 0 19 -9 40 -25 55 -23 24
-29 25 -160 25 -131 0 -137 -1 -160 -25z"/>
<path d="M1459 1891 c-17 -18 -29 -40 -29 -56 0 -16 12 -38 29 -56 29 -29 30
-29 151 -29 158 0 191 15 190 88 -1 65 -40 82 -190 82 -121 0 -122 0 -151 -29z"/>
<path d="M1484 1570 c-56 -23 -70 -92 -28 -134 26 -25 29 -26 161 -26 129 0
135 1 158 25 34 33 34 83 -1 116 -24 22 -34 24 -147 26 -67 2 -132 -2 -143 -7z"/>
<path d="M1455 1205 c-16 -15 -25 -36 -25 -55 0 -19 9 -40 25 -55 23 -24 29
-25 160 -25 131 0 137 1 160 25 16 15 25 36 25 55 0 19 -9 40 -25 55 -23 24
-29 25 -160 25 -131 0 -137 -1 -160 -25z"/>
<path d="M2432 3167 c-32 -34 -30 -89 4 -116 35 -27 66 -26 100 2 35 31 37 77
4 112 -31 33 -79 33 -108 2z"/>
<path d="M2795 3165 c-16 -15 -25 -36 -25 -55 0 -36 38 -80 69 -80 50 0 91 41
91 91 0 31 -44 69 -80 69 -19 0 -40 -9 -55 -25z"/>
<path d="M3163 3175 c-44 -31 -37 -111 13 -134 38 -17 63 -13 89 14 68 67 -23
175 -102 120z"/>
<path d="M3893 2841 c-110 -38 -173 -104 -264 -276 -77 -148 -92 -165 -140
-165 -50 0 -90 20 -154 78 -102 92 -231 129 -339 98 -67 -20 -140 -86 -219
-199 -68 -97 -88 -107 -222 -107 -81 0 -116 -4 -132 -15 -44 -31 -37 -111 13
-134 35 -16 231 -14 287 3 68 20 119 66 197 175 75 106 102 126 160 124 57 -3
100 -24 169 -86 144 -129 331 -134 425 -11 18 24 59 92 90 151 108 207 131
222 349 223 144 0 149 1 172 25 35 34 34 86 -1 114 -24 19 -40 21 -183 21
-124 -1 -167 -4 -208 -19z"/>
<path d="M2512 1845 c-57 -25 -100 -65 -127 -118 -25 -51 -25 -51 -25 -329 0
-307 3 -323 63 -387 18 -18 55 -44 82 -57 49 -23 57 -24 311 -24 282 0 312 4
378 55 18 14 46 49 62 77 l29 53 3 258 c4 288 -3 333 -58 399 -16 20 -53 48
-82 62 l-52 26 -275 0 c-215 -1 -283 -4 -309 -15z m577 -171 l31 -26 0 -252 0
-253 -26 -24 -26 -24 -250 0 -250 0 -24 28 -24 28 0 247 c1 178 4 251 13 263
27 35 50 38 289 39 l236 0 31 -26z"/>
<path d="M2639 1451 c-36 -36 -37 -70 -5 -108 24 -28 25 -28 166 -31 78 -2
153 -1 166 2 36 9 64 42 64 75 0 79 -28 91 -215 91 l-147 0 -29 -29z"/>
<path d="M3599 1832 c-68 -36 -114 -95 -129 -167 -7 -36 -10 -142 -8 -303 3
-231 4 -250 25 -288 27 -50 75 -97 122 -121 32 -16 67 -18 321 -18 260 0 288
2 323 19 49 24 92 67 120 120 21 39 22 51 22 321 l0 280 -30 54 c-16 29 -43
64 -60 77 -68 52 -85 54 -379 54 l-274 0 -53 -28z m607 -165 c24 -28 24 -29
24 -272 0 -243 0 -244 -24 -272 l-24 -28 -250 0 -250 0 -26 24 -26 24 0 252
c0 262 1 269 45 294 14 7 98 10 263 8 l244 -2 24 -28z"/>
<path d="M3765 1468 c-53 -31 -60 -85 -16 -129 l29 -29 140 0 c183 0 222 14
222 84 0 73 -31 86 -212 86 -89 0 -151 -5 -163 -12z"/>
</g>
</svg>
